<svg id="Layer_1" data-name="Layer 1" xmlns="http://www.w3.org/2000/svg" width="1280" height="720" viewBox="0 0 1280 720">
  <defs>
    <style>
      .cls-1 {
        fill: #d7e2df;
      }

      .cls-2 {
        fill: #adbec4;
      }

      .cls-3 {
        fill: #0e3944;
      }

      .cls-4 {
        fill: #ef6e4b;
      }

      .cls-5 {
        fill: #ff8b66;
      }

      .cls-6 {
        fill: #164353;
      }

      .cls-7 {
        fill: #cfd8dc;
      }

      .cls-8 {
        fill: #db614d;
      }

      .cls-9 {
        fill: #1a4850;
      }

      .cls-10 {
        fill: #6097b2;
      }

      .cls-11 {
        fill: #205260;
      }

      .cls-12 {
        fill: #8b383e;
      }

      .cls-13 {
        fill: #662c33;
      }

      .cls-14 {
        fill: #ce364c;
      }

      .cls-15 {
        fill: #f24052;
      }

      .cls-16 {
        fill: #a02e44;
      }

      .cls-17 {
        fill: #ffb878;
      }

      .cls-18 {
        fill: #0c476b;
      }

      .cls-19 {
        fill: #105e99;
      }

      .cls-20 {
        fill: #225866;
      }

      .cls-21 {
        fill: #8bbddb;
      }

      .cls-22 {
        fill: #3e6575;
      }

      .cls-23 {
        fill: #c12121;
      }

      .cls-24 {
        fill: #d32f2e;
      }

      .cls-25 {
        fill: #66121c;
      }

      .cls-26 {
        fill: #8c1c21;
      }

      .cls-27 {
        fill: #e53935;
      }

      .cls-28 {
        opacity: 0.19;
      }

      .cls-29 {
        fill: #f9f9f9;
        opacity: 0.06;
      }

      .cls-30 {
        fill: #fff176;
      }

      .cls-31 {
        fill: #f4e364;
      }

      .cls-32 {
        fill: #f9a825;
      }

      .cls-33 {
        fill: #fff9c5;
      }

      .cls-34 {
        fill: #f4ecb3;
      }

      .cls-35 {
        fill: #fffbde;
      }

      .cls-36 {
        fill: #fcf5ca;
      }

      .cls-37 {
        fill: #ffb54a;
      }

      .cls-38 {
        fill: #d81a1a;
      }

      .cls-39 {
        fill: #eee;
      }

      .cls-40 {
        fill: #fc3030;
      }

      .cls-41 {
        fill: #e0e0e0;
      }

      .cls-42, .cls-56 {
        opacity: 0.1;
      }

      .cls-43 {
        fill: #c6c4c4;
      }

      .cls-44 {
        opacity: 0.05;
      }

      .cls-45, .cls-56 {
        fill: #fff;
      }

      .cls-46 {
        fill: #d6811d;
        opacity: 0.11;
      }

      .cls-47 {
        fill: #616162;
      }

      .cls-48 {
        fill: #484848;
      }

      .cls-49 {
        fill: #42a5f6;
      }

      .cls-50 {
        fill: #ee534f;
      }

      .cls-51 {
        fill: #66c1ff;
      }

      .cls-52 {
        fill: #e57373;
      }

      .cls-53 {
        opacity: 0.16;
      }

      .cls-54 {
        fill: #cfcfd7;
      }

      .cls-55 {
        fill: #2d2d2d;
      }

      .cls-57 {
        fill: none;
      }
    </style>
  </defs>
  <title>bioskop banner2</title>
  <g>
    <path class="cls-1" d="M606.94,506.5s-101.8-85.33-22.31-187.37S750.44,194.6,790.53,197.6s120.18,40.17,157.1,35.23,91-21.82,139.59-15.53c60.23,7.8,100.4,33.89,124.38,58.67,20.91,21.6,30.44,66,21,102.42-8,30.77-69.32,144.12-139.83,144.12h-51.18l-80.31,0-94.89,0-94.91,0-80.39,0-38.66,0c-8.2,0-16.62.34-24.57-2C619.64,517.89,613,512.41,606.94,506.5Z"/>
    <g>
      <g>
        <rect class="cls-2" x="646.88" y="517.86" width="58.61" height="4.47" rx="1.75" ry="1.75"/>
        <rect class="cls-2" x="1036.06" y="517.86" width="18.58" height="4.47" rx="1.75" ry="1.75"/>
        <rect class="cls-2" x="750.57" y="517.86" width="58.61" height="4.47" rx="1.75" ry="1.75"/>
        <rect class="cls-2" x="831.48" y="517.86" width="58.61" height="4.47" rx="1.75" ry="1.75"/>
        <rect class="cls-2" x="910.56" y="517.86" width="78.62" height="4.47" rx="1.75" ry="1.75"/>
      </g>
      <g>
        <path class="cls-3" d="M722.2,272.06s-5.82-4-14.33-.91-10.42,14.51-8.33,23.82S689.92,336,689.92,336s6.09,8.57,27.38,5.29c0,0,15.87-28.85,14.69-49.56S722.2,272.06,722.2,272.06Z"/>
        <path class="cls-4" d="M728.92,307.84c8-2.56,12.9,4.1,17.48,16.5S752.53,338,752.53,338l17.69,11.37L768.75,356s-16.84-6.59-20.91-10.79-15.78-25.44-15.78-25.44Z"/>
        <path class="cls-5" d="M689.93,387.94s-3.47,17.58-2.9,44c0,0-13.68,20.17-2.39,77.72h5.92s4.84-49,8.54-62.23,17.37-17.34,18.11-57.68Z"/>
        <path class="cls-5" d="M662.87,439.63c-3.44-11.34-12.28-30.33-35-56.07a3.37,3.37,0,0,0-3.18.42c-1.93,1.18-1.93,2.57-1.93,2.57s11.38,24.79,18.63,43a16.08,16.08,0,0,0,14.93,10.13Z"/>
        <path class="cls-6" d="M704.17,461.56s.08,8.46-5.47,8.6c-7.84.21-8.13-8.33-17-8s-27.2,2.5-33-11.38c-3-7.17,1.11-16.38-8.6-23.32s-5-14.71,0-18.87-2.15-8.7,3.05-10.82a5.09,5.09,0,0,1,3.6-.07,8.38,8.38,0,0,1,1.89,1,18.25,18.25,0,0,1,4.69,5C668,363.33,694.18,358,694.18,358l25.9,8.94C720.7,429.64,704.17,461.56,704.17,461.56Z"/>
        <path class="cls-7" d="M728.92,307.84a33.92,33.92,0,0,1-14.64.73c-8.6-1.31-11.39-6.7-17.43-3.23-9.07,5.21-4.83,23.16-2.55,32.5.85,3.48,1.93,12.62-.12,20.17,0,0,12.08,9.4,25.9,8.93l7.54-16.4S744,330.92,728.92,307.84Z"/>
        <path class="cls-4" d="M713.57,292.79A37.07,37.07,0,0,1,711.44,309s4.48,6.62,8.76,2.26a42.77,42.77,0,0,1,5.2-16.59C728.62,288.79,713.57,292.79,713.57,292.79Z"/>
        <g>
          <path class="cls-5" d="M706.7,293.08s-3.78-2.39-3.36,1.3c.5,4.28,4.67,5.11,5.11,3.62S706.7,293.08,706.7,293.08Z"/>
          <path class="cls-5" d="M728.4,288.45s2.4-3.78,3.59-.26c1.38,4.08-2,6.61-3.08,5.45S728.4,288.45,728.4,288.45Z"/>
          <path class="cls-5" d="M720.59,305.86c-6.86,1.54-11.74-2.08-14.75-15.52-1.55-6.93,1-12,8.71-13.7s11.87,1.81,13.43,8.74C731.21,299.83,727.68,304.28,720.59,305.86Z"/>
          <ellipse class="cls-8" cx="725.28" cy="291.31" rx="1.62" ry="1.3" transform="translate(-56.27 299.92) rotate(-22.51)"/>
          <ellipse class="cls-8" cx="711.15" cy="294.48" rx="1.62" ry="1.3" transform="translate(-36.97 113.45) rotate(-8.89)"/>
          <path class="cls-3" d="M722,284.43a.35.35,0,0,1-.19-.06A4,4,0,0,0,719,284a.35.35,0,0,1-.18-.68,4.7,4.7,0,0,1,3.42.46.35.35,0,0,1-.2.64Z"/>
          <path class="cls-3" d="M709.08,287.32a.35.35,0,0,1-.3-.53,4.7,4.7,0,0,1,2.9-1.87.36.36,0,0,1,.41.28.35.35,0,0,1-.28.41,4.06,4.06,0,0,0-2.43,1.55A.35.35,0,0,1,709.08,287.32Z"/>
          <ellipse class="cls-9" cx="721.45" cy="288.38" rx="0.88" ry="1.58" transform="translate(-45.58 164.59) rotate(-12.62)"/>
          <ellipse class="cls-9" cx="711.91" cy="290.44" rx="0.88" ry="1.58" transform="translate(-46.25 162.55) rotate(-12.62)"/>
          <path class="cls-9" d="M715.85,298.31s4.41-.36,6.35-2c0,0-.53,3.44-2.93,3.68A3.5,3.5,0,0,1,715.85,298.31Z"/>
          <path class="cls-9" d="M719.9,288.29s.16-2.24,1-2.27,1.89,1.62,1.89,1.62l1.07-.92-1.18.43s-1.05-1.73-1.87-1.55C719.66,285.85,719.9,288.29,719.9,288.29Z"/>
          <path class="cls-9" d="M713.3,290s-1.1-2-1.89-1.62-1,2.27-1,2.27l-1.36-.37,1.25-.11s.21-2,1-2.2C712.48,287.73,713.3,290,713.3,290Z"/>
          <path class="cls-8" d="M718.08,294.34l-.35-.67a.87.87,0,0,0,.56-1,.94.94,0,0,0-.65-.75c-.14,0-.26.11-.35.35l-.71-.26a1.09,1.09,0,0,1,1.11-.85,1.66,1.66,0,0,1,1.34,1.35A1.64,1.64,0,0,1,718.08,294.34Z"/>
          <path class="cls-3" d="M707.24,295.5s-2.12-7.79-.86-13.29c0,0,6-8.31,17.49-4.2A46.49,46.49,0,0,1,729,291.2s.43-2.77-.72-8.93-6.61-10-14.11-8.75S698.65,282.21,707.24,295.5Z"/>
        </g>
        <path class="cls-3" d="M719.32,276.28s.46,2-1.52,7.27a2.16,2.16,0,0,0-3.09,0c-1.67,1.49-5,1-6.2,1.79a3.56,3.56,0,0,0-1.15,2.64,7.28,7.28,0,0,1,0-5,10.07,10.07,0,0,0-1.95,6.38s-3-.49-2.91-5.52,7.28-13.16,15.3-12.63,9.92,13.22,9.92,13.22a2.34,2.34,0,0,0-1.88-.32,16.62,16.62,0,0,0-2-6.07,9,9,0,0,1,0,5.08,7.26,7.26,0,0,0-4-.8S721,280.15,719.32,276.28Z"/>
        <path class="cls-5" d="M694.82,307c3.9-3.08,6.94.84,7.68,6.25s-6.31,37.33-11.75,36.15c-2.1-.45-3-8.82-3-8.82a192,192,0,0,0,3.5-22.48C691.93,311.85,692.78,308.56,694.82,307Z"/>
        <path class="cls-5" d="M683.46,344.84c-5.25-5-14.67-21.61-17.06-30.07l4-1.6s12,17.17,17.47,21.5,7.4,9.15,5,13.28S684.57,345.9,683.46,344.84Z"/>
        <g>
          <path class="cls-5" d="M668,303.7c-.28,5.43,4.15,6.72,2.19,10.89a2.85,2.85,0,0,1-1.66,1.54,3.36,3.36,0,0,1-3.47-.89,38.43,38.43,0,0,0-7.09-5.37c-2-1.14-.85-1.45-.85-1.45l-.56-.24c-1.4-.59-2.53-.81-1.51-1.43s5.21.77,5.21.77c-5.29-3.52-6.72-2.66-5.76-3.41,1.32-1,6.34,1.33,6.49,1.4-2.79-2.64-4.82-3.24-3.71-3.64s6.65,3.6,8.67,5.1l.73.55C666.65,303.09,668,303.7,668,303.7Z"/>
          <path class="cls-4" d="M666,307l.73.55a3.68,3.68,0,0,0,.28,3.65A3.29,3.29,0,0,1,666,307Z"/>
          <path class="cls-4" d="M661.35,310.09c-.47-.26-3.14-1.76-4.2-1.67l-.56-.24C657.3,307.24,660.82,309.71,661.35,310.09Z"/>
        </g>
        <g>
          <circle class="cls-10" cx="681.24" cy="390.67" r="1.07"/>
          <circle class="cls-10" cx="700.28" cy="398.01" r="1.07"/>
          <circle class="cls-10" cx="716.51" cy="401.95" r="1.07"/>
          <circle class="cls-10" cx="691.58" cy="376.73" r="1.07"/>
          <circle class="cls-10" cx="695.17" cy="386.87" r="1.07"/>
          <circle class="cls-10" cx="712.06" cy="392.65" r="1.07"/>
          <circle class="cls-10" cx="714.37" cy="375.16" r="1.07"/>
          <circle class="cls-10" cx="703.31" cy="371.52" r="1.07"/>
          <circle class="cls-10" cx="671.8" cy="411.49" r="1.07"/>
          <circle class="cls-10" cx="656.59" cy="406.95" r="1.07"/>
          <path class="cls-10" d="M648.59,398.6a1.07,1.07,0,0,1-2-.59.8.8,0,0,1,.08-.37A8.38,8.38,0,0,1,648.59,398.6Z"/>
          <circle class="cls-10" cx="677.25" cy="425.41" r="1.07"/>
          <circle class="cls-10" cx="649.95" cy="440.53" r="1.07"/>
          <circle class="cls-10" cx="661.1" cy="431.36" r="1.07"/>
          <circle class="cls-10" cx="644.49" cy="423.25" r="1.07"/>
          <circle class="cls-10" cx="657.9" cy="455.2" r="1.07"/>
          <circle class="cls-10" cx="668.06" cy="399.08" r="1.07"/>
          <circle class="cls-10" cx="678.32" cy="381.1" r="1.07"/>
          <circle class="cls-10" cx="689.92" cy="366.15" r="1.07"/>
          <circle class="cls-10" cx="666.4" cy="387.94" r="1.07"/>
          <circle class="cls-10" cx="679.38" cy="370.45" r="1.07"/>
          <circle class="cls-10" cx="658.97" cy="418.51" r="1.07"/>
          <circle class="cls-10" cx="645.56" cy="409.08" r="1.07"/>
          <circle class="cls-10" cx="684.45" cy="405.88" r="1.07"/>
          <circle class="cls-10" cx="706.51" cy="411.49" r="1.07"/>
          <circle class="cls-10" cx="705.45" cy="381.1" r="1.07"/>
          <circle class="cls-10" cx="718.27" cy="383.34" r="1.07"/>
          <circle class="cls-10" cx="692.65" cy="419.58" r="1.07"/>
          <circle class="cls-10" cx="683.38" cy="438.56" r="1.07"/>
          <circle class="cls-10" cx="666.99" cy="441.6" r="1.07"/>
          <circle class="cls-10" cx="712.06" cy="425.41" r="1.07"/>
          <circle class="cls-10" cx="697.31" cy="433.5" r="1.07"/>
          <circle class="cls-10" cx="675.11" cy="457.33" r="1.07"/>
          <circle class="cls-10" cx="691.58" cy="451.77" r="1.07"/>
          <circle class="cls-10" cx="707.44" cy="445.49" r="1.07"/>
          <circle class="cls-10" cx="700.28" cy="463.85" r="1.07"/>
        </g>
        <g>
          <path class="cls-6" d="M700.18,520.05H682.65c-1.14-3.26,1-6.54.61-9.42-.61-4.86,2.22-2.18,2.22-2.18.5-5.23,7.85-6.22,7.77-3.89-.12,3.43.54,5.55,1.52,7,2,2.85,5.22,2.83,5.77,4.87.06.2.1.4.13.58C701.23,519.55,700.18,520.05,700.18,520.05Z"/>
          <path class="cls-11" d="M700.68,517c-3.63.84-12-.26-12.33-2.36s4.19-3,6.43-3.09c2,2.85,5.22,2.83,5.77,4.87C700.61,516.62,700.65,516.82,700.68,517Z"/>
        </g>
        <g>
          <path class="cls-6" d="M628.12,384.26c-1.87-1.7-4.9,1.11-4.9,1.11s1.63,2.42.58,3.4-2.28-1.25-4.35-.28a3.94,3.94,0,0,0-.51.29,24,24,0,0,0-4.67,4.54l-.79.85c-1.59,1.67-5.68,2.64-6.45-1.8s4.23-9.65,9.71-14.43,9-1.94,9-1.94a8.62,8.62,0,0,1,1.24,3.26c0,1.24,1.11,1.87,1.73,3.05A1.51,1.51,0,0,1,628.12,384.26Z"/>
          <path class="cls-11" d="M618.93,388.78a24,24,0,0,0-4.67,4.54c-2.05.49-3.9.34-4.19-1.59-.7-4.66,8.6-10.59,7.86-7.32A5.82,5.82,0,0,0,618.93,388.78Z"/>
        </g>
      </g>
      <g>
        <path class="cls-7" d="M943.57,512.47a6.78,6.78,0,0,1-2.38-2.71,27.15,27.15,0,0,1,0-7.65c.62-3.92-1.09-7.12-6.64-8.33-5.4-1.17-8.6,1.43-7.35,12.28h0c-.82,4.51-1,9.65.88,14h16.61S947.31,514.44,943.57,512.47Z"/>
        <path class="cls-5" d="M958.14,454A50.4,50.4,0,0,1,952,475.92c-6.22,11.31-13.91,26.82-13.91,26.82s-5.12,5-8.38-3.28c0,0,2.3-28.82,7.57-39.36S958.14,454,958.14,454Z"/>
        <path class="cls-5" d="M1037.8,418.74s9.89,41.61,16.19,52.59c0,0-1.45,4.59-8.26,6,0,0-21.53-31.64-22.91-45S1037.8,418.74,1037.8,418.74Z"/>
        <g>
          <path class="cls-12" d="M1042.59,428.52c-2.63,6.34-23,6.68-23,6.68l-1.55-2.29-.41-.6-3.18-4.69s-33.69-33-40.25-30.27h0a3.13,3.13,0,0,0-.56.32c-4.51,3.22-4.93,20.86-10.26,50.47a52.15,52.15,0,0,1-2.5,8.35l-.28.7c-.49,1.25-.83,2.05-.83,2.05-20.56,8.33-27.35-8.13-27.35-8.13s.24-.48.6-1.24l.26-.56c1.08-2.38,2.8-6.5,2.78-8.67q0-3.58-.06-6.89c0-.2,0-.39,0-.58,0-7.12,0-13.3,0-18.67V414c0-2.34.06-4.53.1-6.57v-.58c.18-9.36.48-15.61.8-19.77,0-.19,0-.39,0-.57.57-7,1.17-7.69,1.17-7.69L934,350.14H979s6.75,6.76,15.51,15.69c.19.18.37.36.54.54,3.18,3.23,6.61,6.74,10,10.3l.4.41,4.05,4.19.49.51c4.51,4.67,8.88,9.28,12.62,13.31l.38.4c5.12,5.54,9,10,10.36,12,3.56,5.45,6.34,12.55,7.87,16.93h0l.21.57C1042.19,427.17,1042.59,428.52,1042.59,428.52Z"/>
          <g>
            <path class="cls-13" d="M944.88,383.06a12.16,12.16,0,0,1-7.94,4c0-.19,0-.39,0-.57a11.52,11.52,0,0,0,7.47-3.77,12.54,12.54,0,0,0,2.58-8.6l.56-.07A13,13,0,0,1,944.88,383.06Z"/>
            <path class="cls-13" d="M995,366.37l-.52,0c-5,0-10.21-5.46-10.48-5.74l.4-.39c.07.08,5.26,5.52,10.06,5.56C994.68,366,994.86,366.18,995,366.37Z"/>
            <path class="cls-13" d="M960.92,456.51l-.28.7a26.49,26.49,0,0,1-9.17,1.72c-8.88,0-15-5.14-18.41-9l.26-.56C937.63,454.41,946.86,461.88,960.92,456.51Z"/>
            <path class="cls-13" d="M973,387.06a46.69,46.69,0,0,1,1.24,10.31,3.13,3.13,0,0,0-.56.32c0-16.76-9.73-29.84-9.84-30l.44-.33a57.75,57.75,0,0,1,8.56,19.11,5.09,5.09,0,0,0,2.22-3.19c1.4-5.88-5-15.5-5-15.6l.46-.31c.27.41,6.55,9.91,5.11,16A5.64,5.64,0,0,1,973,387.06Z"/>
            <path class="cls-13" d="M1023,395.49c-1.65,1.8-3.21,3.33-3.35,3.46l-.3.3-.14-.4c-2.18-5.7-16.17-18-16.31-18.16l-.17-.16,2.33-3.86.4.41-2,3.24a13.61,13.61,0,0,0,6,.94l.49.51a8.66,8.66,0,0,1-1.45.12,15.06,15.06,0,0,1-4.3-.74c3.18,2.86,13,12,15.31,17.11.88-.87,2-2,3.06-3.18Z"/>
            <path class="cls-13" d="M946.26,433.68l-.22,0a28.43,28.43,0,0,1-5.63.58,16.5,16.5,0,0,1-4.37-.52c0-.2,0-.39,0-.58,3.66,1.05,8.56.24,9.67,0l-.93-23.1a7.5,7.5,0,0,1-3.49,4,6.74,6.74,0,0,1-3.09.69,9.92,9.92,0,0,1-2.14-.24V414a7.22,7.22,0,0,0,5-.38,7.57,7.57,0,0,0,3.57-4.65c-1.85.28-5.6-.67-8.45-1.54v-.58c3.08.93,7.24,2,8.74,1.49l.36-.12Z"/>
            <path class="cls-13" d="M1041.46,425a28.17,28.17,0,0,1-20,8.06,32.25,32.25,0,0,1-3.36-.18l-.41-.6c12.38,1.42,20.14-4.39,23.59-7.85Z"/>
          </g>
        </g>
        <path class="cls-14" d="M987.28,228.4s-1.24-2.84-6.45-2.84c-4,0-5.56,2.22-5.56,2.22-2.41,7-5,34-5.92,34.91-.47.49-30.3,20.57-30.3,20.57,16.19.3,26.28,20.25,26.28,20.25.52-6.56,18.8-32.54,19-34.85C984.71,264.3,992.45,244.78,987.28,228.4Z"/>
        <path class="cls-14" d="M935.5,369.18s-.15,5.62,1.67,6a51.11,51.11,0,0,0,33.64-3c17-7.74,20-13.48,15-17.73S935.5,369.18,935.5,369.18Z"/>
        <path class="cls-15" d="M928.68,287.15s-15.49-1.83-24.37,2c0,0-2.48,11,9.73,35.59s9.37,40.09,23.13,45.92c12.2,5.17,48.17-10.22,49.3-15.32,2.84-12.85-19.15-35.39-20.54-48.45S951.78,274.2,928.68,287.15Z"/>
        <path class="cls-14" d="M904.31,289.16c-10.82,3.84-23,16-23,21.86s10.16,8.12,10.16,8.12L908.13,311s4.77-3.33,1.73-13S904.31,289.16,904.31,289.16Z"/>
        <path class="cls-7" d="M948.79,300a18.37,18.37,0,0,1-9.74-2.94,5.21,5.21,0,0,1-2.37-3.19c-.61-3.85,3.13-5.8,3.29-5.88l.5,1c-.13.07-3.18,1.68-2.7,4.72a4.17,4.17,0,0,0,1.92,2.46,16.46,16.46,0,0,0,10.76,2.6,3.65,3.65,0,0,0,2.75-1.51,2.52,2.52,0,0,0,.07-2l1-.44a3.62,3.62,0,0,1-.11,2.93,4.65,4.65,0,0,1-3.54,2.09A10.77,10.77,0,0,1,948.79,300Z"/>
        <path class="cls-7" d="M935.06,311.71c-2.4,0-6.37-1-6.93-4.93a19.53,19.53,0,0,1,.06-5.14c.24-2.17.42-3.88-.84-5.93-2.09-3.39-4.93-3.61-5-3.62l.07-1.11c.14,0,3.52.25,5.92,4.15,1.46,2.38,1.24,4.45,1,6.64a18.32,18.32,0,0,0-.06,4.87c.6,4.24,6,4,6.24,4l.07,1.11Z"/>
        <path class="cls-14" d="M938.43,291.78s8.19-5.58,6.25-11.61-28.31-5.62-35.11,1.6,14.71,12,14.71,12C925.94,290.42,936.58,290,938.43,291.78Z"/>
        <path class="cls-16" d="M923.71,290.84c-3.89-1.32-6.19-4.12-5.36-7.36s17.54-3.32,20.7-.74S937.76,295.61,923.71,290.84Z"/>
        <path class="cls-4" d="M921.86,281.74s3.44,5.87,1.85,9.1c0,0,11.79,4.07,11.79-2.53,0,0-2.22-4.95-1.38-8.14Z"/>
        <g>
          <path class="cls-17" d="M917.93,276.61s-5.79-9.28-5.26-18.14c.27-4.43,2.55-6.17,2.55-6.17s-1.84-2.56.13-6.47c0,0,2.73,3.16,12.31,2.16,9.24-1,10.16,5.62,10.16,5.62,6.6,1,2.15,21-2.46,23Z"/>
          <path class="cls-5" d="M915.47,268s-3.33-3.32-3.74.56c-.48,4.5,3.61,6.31,4.41,4.88S915.47,268,915.47,268Z"/>
          <path class="cls-5" d="M938.79,268.28s3.33-3.32,3.74.56c.47,4.5-3.61,6.31-4.41,4.88S938.79,268.28,938.79,268.28Z"/>
          <path class="cls-5" d="M926.78,284.34c-7.39,0-11.56-4.83-11.56-19.3,0-7.47,3.8-12,12.08-12s11.76,4.58,11.76,12C939.06,280.6,934.41,284.34,926.78,284.34Z"/>
          <ellipse class="cls-8" cx="934.93" cy="270.5" rx="1.71" ry="1.37" transform="translate(-32.58 164.72) rotate(-9.9)"/>
          <ellipse class="cls-8" cx="919.71" cy="270.5" rx="1.36" ry="1.71" transform="translate(589.93 1170.65) rotate(-86.27)"/>
          <path class="cls-17" d="M933.36,262.44a.37.37,0,0,1-.28-.07,4.23,4.23,0,0,0-3-.58.37.37,0,0,1-.43-.29.37.37,0,0,1,.29-.43,4.93,4.93,0,0,1,3.55.72.37.37,0,0,1-.17.66Z"/>
          <path class="cls-17" d="M919.22,262.49a.37.37,0,0,1-.24-.13.37.37,0,0,1,.05-.52,4.94,4.94,0,0,1,3.53-.83.37.37,0,0,1,.31.42.38.38,0,0,1-.42.31,4.26,4.26,0,0,0-2.95.67A.37.37,0,0,1,919.22,262.49Z"/>
          <ellipse class="cls-9" cx="931.67" cy="266.61" rx="0.92" ry="1.66"/>
          <ellipse class="cls-9" cx="921.8" cy="266.61" rx="0.92" ry="1.66"/>
          <path class="cls-17" d="M917.49,254.6a50.35,50.35,0,0,0,19.16,2.07s2.41,3,2.12,13.59c0,0,6.61-19.07-12.69-19.07s-10.6,18.65-10.6,18.65S913.9,258.17,917.49,254.6Z"/>
          <path class="cls-8" d="M927.25,271.55l-.55-.56,1.46-1.45c-1.42-2-1.41-6.64-1.41-6.85h.79s0,5,1.44,6.61l.26.28Z"/>
          <path class="cls-9" d="M922.34,274s7.27.31,10.94-.66a4.87,4.87,0,0,1-5,5.55C922.34,279.13,922.34,274,922.34,274Z"/>
        </g>
        <path class="cls-7" d="M953.42,294c1.39-.26,1.25,3.37,0,2.32S952,294.22,953.42,294Z"/>
        <path class="cls-7" d="M936.69,311.56c-.21,1.4-3.6.07-2.19-.76S936.9,310.16,936.69,311.56Z"/>
        <path class="cls-4" d="M921.79,319.14s-2.2,5.65-2.08,8.84,1.17,2.78,1.17,2.78a3.45,3.45,0,0,0-2,2.5c-.32,1.84,4.33,3.19,4.65,3.19s3.6-1.25,3.6-1.25l.69-10.44-2.9-1.82Z"/>
        <path class="cls-5" d="M923.54,318.4a45.58,45.58,0,0,1,5.57,4c1.55,1.53.67,13.32,0,13.88s-5.78,1.7-6.76,1.06.38-4.11.38-4.11,2.57-.56,2.2.42a2.55,2.55,0,0,0,0,1.8l1.05-.42a12.26,12.26,0,0,1,0-4.58c.52-1.94-3.62-4-4.12-7.55S923.54,318.4,923.54,318.4Z"/>
        <path class="cls-14" d="M882,312.66c-1.28-5.55,4.22-7.51,11.88-6.56,8.88,1.1,27.12,3.42,31.09,13,0,0,1.3,3.8-2.06,5.62C913.5,329.85,884.37,323.08,882,312.66Z"/>
        <path class="cls-16" d="M909.74,309s-10.59-4.4-15.86-4.84S901.18,308.3,909.74,309Z"/>
        <g>
          <path class="cls-5" d="M989.09,213.68a23.84,23.84,0,0,0-2.12,4.45c-.56,3-.88,4.62-1.92,6s-.49,3.77-.49,3.77-4,2.08-7.44-.49c0,0,.36-2.39,0-3.06-.7-1.35-2.94-2.08-3.71-4.81a21.43,21.43,0,0,0-3.06-5.8s.66-1.42,1.85-.56,2,3.06,2.63,3.29a1.73,1.73,0,0,0,.4.09h0a1.62,1.62,0,0,0,1.32-.34.21.21,0,0,0,.08-.07c1.1-1.28,1.35-5,1.31-6.71-.07-2.33,0-5.55,1.44-5s.12,1.84,1.22,7l.53.07c.1.37,1.08-3.12,1.31-6.4.17-2.25,1.64-1.42,2-.71s-.17,3-.27,4.59c-.08,1.08-.17,2.2-.22,2.86l.62.34c2.24-3.91,1.48-5.53,2.79-5.61s.83,3.22.13,4.47a12.37,12.37,0,0,0-.82,2.79c2.3-2.65,2-4,3.1-3.87S989.89,212.77,989.09,213.68Z"/>
          <path class="cls-4" d="M979.17,219.8c-.78-2.14-3.55-3.12-3.9-3.23a1.62,1.62,0,0,0,1.32-.34A3.9,3.9,0,0,1,979.17,219.8Z"/>
        </g>
        <g>
          <path class="cls-7" d="M930.94,503.77s-1.54-3.13-.17-4.48,3,1.15,5.32.6,2.88-2.22,3.49,0S939.45,509.32,930.94,503.77Z"/>
          <path class="cls-2" d="M939.75,503.63s-6.28,2.23-9.54,0l.83,2.72s6.83.72,7.77-1Z"/>
          <path class="cls-2" d="M939.66,507s-5.75-.8-8.53.63V509s7.5-1.75,9.93,0Z"/>
          <path class="cls-2" d="M930.86,511.79a5.24,5.24,0,0,1,4.62-2.91,9.13,9.13,0,0,1,5.86,1.73S935.78,508.32,930.86,511.79Z"/>
        </g>
        <g>
          <path class="cls-7" d="M1078.95,474a46.68,46.68,0,0,1-26.08,17.58c-4.36-3.49-4.47-7.62-4.47-7.62s-4.21-3.75-4.76-5.55,3.61-7.22,6.11-6.66a5,5,0,0,1,3.18,2.56c-2.07-4.65-.41-6.27,2.52-5.87s.17,1.13,2.35,3.59a2.89,2.89,0,0,0,.52.46,3.61,3.61,0,0,0,1.42.57,6.53,6.53,0,0,0,1.57.08,8.27,8.27,0,0,0,.89-.09,12,12,0,0,0,1.74-.42,15.65,15.65,0,0,0,2.81-1.21c3.82-2.09,5.43-2.8,8.34-2.05s2.85,2.93,2.85,2.93Z"/>
          <path class="cls-2" d="M1078.95,474a46.68,46.68,0,0,1-26.08,17.58c7.67-3.3,14.72-7.62,19.54-12.93S1078.95,474,1078.95,474Z"/>
          <g>
            <path class="cls-2" d="M1058.31,472.49a3.61,3.61,0,0,0,1.42.57,3.74,3.74,0,0,0-3.13,3.2l-1.24-.4C1055.62,472.72,1058.1,472.5,1058.31,472.49Z"/>
            <path class="cls-2" d="M1060.27,476.57l-1.3,0a3.44,3.44,0,0,1,.75-3.55,6.53,6.53,0,0,0,1.57.08A3.71,3.71,0,0,0,1060.27,476.57Z"/>
            <path class="cls-2" d="M1063.48,475.86l-1.29.17a3.59,3.59,0,0,1,0-3,12,12,0,0,0,1.74-.42A3.78,3.78,0,0,0,1063.48,475.86Z"/>
          </g>
        </g>
        <path class="cls-14" d="M939.86,338.94s2.85,15.39-2.91,21.52-2,1.09-.23-6.81S937.12,337.42,939.86,338.94Z"/>
        <path class="cls-14" d="M966.47,332.08s9.09,3,13.84,11.38C980.31,343.46,974,329.79,966.47,332.08Z"/>
      </g>
      <g>
        <g>
          <path class="cls-5" d="M730.42,217.77a23.84,23.84,0,0,1,4.72,1.42c2.58,1.59,4,2.45,5.72,2.59s2.4,3.08,2.4,3.08,6.72,1.47,7.1-2.77c0,0-3.76-5.32-4-6-.53-1.43.44-3.57-1.07-6a21.43,21.43,0,0,1-2.24-6.16s-1.49-.47-1.66,1,.94,3.52.67,4.16a1.73,1.73,0,0,1-.2.36v0a1.62,1.62,0,0,1-1.14.75.21.21,0,0,1-.1,0c-1.68,0-4.64-2.37-5.85-3.53-1.68-1.61-4.13-3.71-4.68-2.29s1.28,1.33,4.36,5.59l-.31.44c.2.32-3-1.3-5.62-3.32-1.78-1.39-2.16.26-1.85,1s2.3,1.86,3.58,2.88l2.27,1.76-.16.69c-4.4-1-5.09-2.62-6-1.7s1.83,2.78,3.23,3.1a12.37,12.37,0,0,1,2.62,1.26c-3.51-.08-4.37-1.2-5-.31S729.21,217.75,730.42,217.77Z"/>
          <path class="cls-4" d="M741.62,214.52c-1.07-2,.07-4.73.22-5.06a1.62,1.62,0,0,1-1.14.75A3.9,3.9,0,0,0,741.62,214.52Z"/>
        </g>
        <g>
          <path class="cls-5" d="M928.27,217.77a23.84,23.84,0,0,0-4.72,1.42c-2.58,1.59-4,2.45-5.72,2.59s-2.4,3.08-2.4,3.08-6.72,1.47-7.1-2.77c0,0,3.76-5.32,4-6,.53-1.43-.44-3.57,1.07-6a21.43,21.43,0,0,0,2.24-6.16s1.49-.47,1.66,1-.94,3.52-.67,4.16a1.73,1.73,0,0,0,.2.36v0a1.62,1.62,0,0,0,1.14.75.21.21,0,0,0,.1,0c1.68,0,4.64-2.37,5.85-3.53,1.68-1.61,4.13-3.71,4.68-2.29s-1.28,1.33-4.36,5.59l.31.44c-.2.32,3-1.3,5.62-3.32,1.78-1.39,2.16.26,1.85,1s-2.3,1.86-3.58,2.88l-2.27,1.76.16.69c4.4-1,5.09-2.62,6-1.7s-1.83,2.78-3.23,3.1a12.37,12.37,0,0,0-2.62,1.26c3.51-.08,4.37-1.2,5-.31S929.49,217.75,928.27,217.77Z"/>
          <path class="cls-4" d="M917.08,214.52c1.07-2-.07-4.73-.22-5.06a1.62,1.62,0,0,0,1.14.75A3.9,3.9,0,0,1,917.08,214.52Z"/>
        </g>
        <path class="cls-3" d="M869.18,421.61l-12.92-80-25.87,2.89-25.87-2.89-12.92,80-6.2,77.58s2,6.43,14.88,2c0,0,9.57-72,11.05-73.54S828,379.05,828,379.05h4.76s15.2,47,16.68,48.59,11.05,73.54,11.05,73.54c12.9,4.44,14.88-2,14.88-2Z"/>
        <path class="cls-18" d="M822.24,264.16c1.63,1.59,9.67,4.46,13.92,0L839,267s-3.28,7.72-9,8-9.92-6.87-9.92-6.87Z"/>
        <path class="cls-18" d="M845,263.29c9.62-4.14,40.71-15.15,40.71-15.15s20.9-26.18,25.16-30.07c0,0,4.63.83,6,6.59,0,0-13.46,28.81-20.77,37.06s-44.36,26.09-44.36,26.09Z"/>
        <path class="cls-17" d="M811.33,262.69c2.86-1.81,17.23,7.8,17.23,7.8s18.68-9.92,23.07-8c0,0,4,5.29,5.54,18.88s1.69,69.54,1.69,69.54a97.56,97.56,0,0,1-29.55,4.44c-19.37,0-29.79-5.55-29.79-5.55S796.06,272.35,811.33,262.69Z"/>
        <path class="cls-4" d="M823,261.24s2.07,6.51,0,9c0,0,2.15,4.51,6,4.71,4.46.23,6-4.71,6-4.71s-2.36-6.29,0-8.5Z"/>
        <g>
          <path class="cls-12" d="M817.84,254.83s-4.35-8.38-3.49-17.34,14.36-11,23.45-6.61c0,0-2.7-2.64-1.64-3.37s2.88,4,2.88,4,2.87-.88,3.31,0-2.94,1.36-2.94,1.36,5.87,3.25.39,20.58Z"/>
          <path class="cls-5" d="M817.18,249.52s-3.25-3.24-3.65.55c-.46,4.39,3.52,6.16,4.3,4.76S817.18,249.52,817.18,249.52Z"/>
          <path class="cls-5" d="M839.92,249.75s3.25-3.24,3.65.55c.46,4.39-3.52,6.16-4.3,4.76S839.92,249.75,839.92,249.75Z"/>
          <path class="cls-5" d="M828.21,265.42c-7.2,0-11.27-4.71-11.27-18.82,0-7.28,3.7-11.75,11.77-11.75s11.47,4.47,11.47,11.75C840.18,261.77,835.65,265.42,828.21,265.42Z"/>
          <ellipse class="cls-8" cx="836.16" cy="251.92" rx="1.66" ry="1.33" transform="translate(-30.85 147.42) rotate(-9.89)"/>
          <ellipse class="cls-8" cx="821.32" cy="251.92" rx="1.33" ry="1.66" transform="translate(516.52 1055.12) rotate(-86.27)"/>
          <path class="cls-12" d="M834.5,244.31a.36.36,0,0,1-.26-.11,4.12,4.12,0,0,0-2.77-1,.37.37,0,0,1-.37-.35.36.36,0,0,1,.35-.37,4.81,4.81,0,0,1,3.32,1.23.36.36,0,0,1-.26.61Z"/>
          <path class="cls-12" d="M820.94,244.31a.36.36,0,0,1-.25-.1.36.36,0,0,1,0-.51,4.82,4.82,0,0,1,3.32-1.23.36.36,0,0,1,.35.37.37.37,0,0,1-.37.35,4.15,4.15,0,0,0-2.77,1A.36.36,0,0,1,820.94,244.31Z"/>
          <ellipse class="cls-9" cx="832.98" cy="248.13" rx="0.9" ry="1.62"/>
          <ellipse class="cls-9" cx="823.36" cy="248.13" rx="0.9" ry="1.62"/>
          <path class="cls-9" d="M824.26,257.71s6.35.82,9.62-.75c0,0-1.85,4.33-5.32,3.94A4.94,4.94,0,0,1,824.26,257.71Z"/>
          <path class="cls-12" d="M839.43,251.35s-.22-7.84-3.28-13.86c0,0-5.38,2.49-6.56,1.9s1.13-1.9,1.13-1.9-8.87,2.93-9.41,2.34,2.94-2.34,2.94-2.34l-5.53,1.9s-1.7,7.05-1,12c0,0-2.38-4.1-2.67-6.93s1-10.9,9.28-11.49,13,1.3,15.07,5.13S841.21,246.59,839.43,251.35Z"/>
          <path class="cls-8" d="M829.47,255.44a6.62,6.62,0,0,1-1.63-.24l.2-.74c.76.21,1.94.33,2.2,0,.09-.11.05-.35-.1-.67-1-2.21-1.26-7.82-1.27-8.06l.77,0c0,.06.22,5.69,1.19,7.76a1.33,1.33,0,0,1,0,1.49A1.75,1.75,0,0,1,829.47,255.44Z"/>
        </g>
        <path class="cls-19" d="M837.44,266.22s13,40.48,14.28,73.42c0,0,4.71,1.3,10-5.92s2.15-64.38-8-73.9C853.72,259.82,849.12,258.77,837.44,266.22Z"/>
        <path class="cls-18" d="M839.56,273.3s2.33-5.42,1.3-9.14-4.7,0-4.7,0S837.64,270.25,839.56,273.3Z"/>
        <path class="cls-18" d="M813.39,263.29c-9.62-4.14-40.71-15.15-40.71-15.15s-21-26.95-25.21-30.83a12,12,0,0,0-5.63,9.16s13.16,27,20.48,35.26,44.36,26.09,44.36,26.09Z"/>
        <path class="cls-19" d="M821,266.22s-13,40.48-14.28,73.42c0,0-4.71,1.3-10-5.92s-2.15-64.38,8-73.9C804.68,259.82,809.28,258.77,821,266.22Z"/>
        <path class="cls-18" d="M818.83,273.3s-2.33-5.42-1.3-9.14,4.7,0,4.7,0S820.76,270.25,818.83,273.3Z"/>
        <g>
          <path class="cls-13" d="M886.88,520.05H861c-1.81-10.29,1.08-20.6,1.08-20.6l11.84-2c1.08,6.51,2.38,9.07,4.17,10.39h0c1.31,1,2.88,1.27,4.83,1.94a6.21,6.21,0,0,1,4,3.72A11,11,0,0,1,886.88,520.05Z"/>
          <path class="cls-12" d="M886.92,513.48c-6.38.8-20.41,2.16-19.55-1.53.71-3.09,6.63-3.92,10.71-4.13h0c1.31,1,2.88,1.27,4.83,1.94A6.21,6.21,0,0,1,886.92,513.48Z"/>
        </g>
        <g>
          <path class="cls-13" d="M800.17,520.05H774.28a12,12,0,0,1-.44-5,6.27,6.27,0,0,1,4.41-5.31c2.24-.78,4-1.07,5.37-2.39s2.68-4.11,3.64-9.95l11.84,2S802,509.76,800.17,520.05Z"/>
          <path class="cls-12" d="M773.84,515.07a6.27,6.27,0,0,1,4.41-5.31c2.24-.78,4-1.07,5.37-2.39,3.28,1,7.86,2.86,9.28,5.67C794.88,516.9,779.74,516.29,773.84,515.07Z"/>
        </g>
      </g>
      <g>
        <g>
          <path class="cls-6" d="M986.05,518.2a14.29,14.29,0,0,1-.11,1.85H954.49c0-.62,0-1.24,0-1.85a57.76,57.76,0,0,1,3-15.37l7.86-3.38a12.58,12.58,0,0,0,4.61,8.33,11.2,11.2,0,0,0,1.8,1.15c.29.16.58.3.88.43a15.11,15.11,0,0,0,2,.74,49.13,49.13,0,0,0,7.55,1.32C985.54,512,986.05,515.84,986.05,518.2Z"/>
          <path class="cls-20" d="M986.05,518.2a14.29,14.29,0,0,1-.11,1.85H954.49c0-.62,0-1.24,0-1.85Z"/>
          <path class="cls-20" d="M971.75,508.94l-4.36,1.4-.92-1.6,3.49-1A11.2,11.2,0,0,0,971.75,508.94Z"/>
          <path class="cls-20" d="M974.64,510.12l-2.94,2-1.81-.71,2.74-2A15.11,15.11,0,0,0,974.64,510.12Z"/>
        </g>
        <g>
          <path class="cls-6" d="M865.88,518.2a7.89,7.89,0,0,1-.36,1.85h-21a9.45,9.45,0,0,1-.59-1.85c-2.06-10,11.86-22.29,11.86-22.29l4.42,5.9s-.51,9.44,3.23,11.4A4.79,4.79,0,0,1,865.88,518.2Z"/>
          <path class="cls-20" d="M844,518.2h21.89a7.89,7.89,0,0,1-.36,1.85h-21A9.45,9.45,0,0,1,844,518.2Z"/>
          <path class="cls-20" d="M862.53,512.45s-8.83-2-12.85.59v-1.46S857.11,508,862.53,512.45Z"/>
          <path class="cls-20" d="M860.78,510.21s-5.64-2.58-11.1,0l.62-1.47S856.84,506.27,860.78,510.21Z"/>
        </g>
        <path class="cls-21" d="M976.56,429.07c0,8.43-7.47,77.13-7.47,77.13a43.71,43.71,0,0,1-13.48-.75c-2.05-34.82-2.25-64.76-2.25-64.76L917.49,413.8l-.09-.07s-.13.61-.38,1.7c-1.78,7.88-9.29,40.9-12.42,48.46-3.56,8.62-42.53,44.85-42.53,44.85-7.24-1-13.38-6.24-13.38-6.24,14-23.2,33.06-46.48,33.06-46.48,1.49-8.36,2.55-27,3.19-40.86l0-.64c.42-9.42.63-16.52.63-16.52L879,384.53l41.76-15.34,9.36,12s2.14,2,5.52,5.16l.47.43C948.67,398.58,976.56,425.29,976.56,429.07Z"/>
        <g>
          <path class="cls-10" d="M884.94,415.17l0-.64c8.79-4.77,7.32-12.39,7.29-12.47l.54-.11C892.83,402,894.41,410.21,884.94,415.17Z"/>
          <path class="cls-10" d="M916.85,408.42a47.4,47.4,0,0,1,.64,5.38l-.09-.07s-.13.61-.38,1.7c-.39-13.06-5.77-20.77-5.84-20.86l.46-.32c.06.07,3.45,5,5.1,13.53,6.35-5.64.13-17.2.07-17.31l.49-.27C917.36,390.33,923.94,402.57,916.85,408.42Z"/>
          <path class="cls-10" d="M936.13,386.76l0,0a2.4,2.4,0,0,1-.87.14c-3.08,0-8.24-4.31-8.48-4.52l.37-.42c1.68,1.42,6.35,4.83,8.56,4.34Z"/>
        </g>
        <path class="cls-2" d="M882,312.66s12.7-2,19.07,2,14.72,14.65,14.72,14.65-9.92,1.31-11,8C904.7,337.37,897.49,320.2,882,312.66Z"/>
        <path class="cls-7" d="M862.85,319.28c-5.37,2.9-14.35,13.81-14.76,20.52-.4,6.54,4.45,12.56,7.72,17.67,10.19,16,20.93,30.06,25.49,48.78,0,.12,23.31,9.36,50.64-23.49,0,0-15.44-20.78-20.78-38.47-2.17-7.2-4.38-14.85-8.55-21.19A22.7,22.7,0,0,0,882,312.66C875,313.22,868.14,316.42,862.85,319.28Z"/>
        <path class="cls-4" d="M860.6,312.59s3.44,5.87,1.85,9.1c0,0,11.79,4.07,11.79-2.53,0,0-2.22-4.95-1.38-8.14Z"/>
        <path class="cls-4" d="M886.8,352.8s-6.56,1.86-8.21,4.19-3.13,7.53-3.13,7.53H886.8l2.13-3.92,2.5-5.23Z"/>
        <g>
          <path class="cls-6" d="M876,306s4.61-1.93,1.63-15.78c-2-9.18-4.82-10.55-6.65-10.63,0,0-2.25-3.39-10-1.77a14.48,14.48,0,0,0-11.48,10.36c-2,6.26,2,19.69,7.12,21Z"/>
          <path class="cls-5" d="M877,296.68s2.9-4,4-.06c1.27,4.61-2.68,7.21-3.76,5.85S877,296.68,877,296.68Z"/>
          <path class="cls-5" d="M852.76,300.94s-4-2.89-3.8,1.23c.28,4.78,4.86,6,5.44,4.33S852.76,300.94,852.76,300.94Z"/>
          <path class="cls-5" d="M868.05,315.63c7.71-1.27,11.23-7,8.74-22.12-1.29-7.79-6-11.91-14.67-10.49s-11.48,6.8-10.2,14.59C854.6,313.83,860.09,316.94,868.05,315.63Z"/>
          <ellipse class="cls-8" cx="857.17" cy="302.59" rx="1.44" ry="1.8" transform="translate(546.71 1156.94) rotate(-89.47)"/>
          <ellipse class="cls-8" cx="873.05" cy="299.97" rx="1.8" ry="1.44" transform="translate(-45.27 205.65) rotate(-13.1)"/>
          <path class="cls-9" d="M857.53,294.16a.39.39,0,0,1-.32-.61,5.23,5.23,0,0,1,3.33-1.9.39.39,0,0,1,.44.34.39.39,0,0,1-.34.44,4.5,4.5,0,0,0-2.79,1.56A.39.39,0,0,1,857.53,294.16Z"/>
          <path class="cls-9" d="M872,291.77a.39.39,0,0,1-.24-.08,4.48,4.48,0,0,0-3.14-.58.38.38,0,0,1-.46-.31.39.39,0,0,1,.31-.46,5.22,5.22,0,0,1,3.76.73.39.39,0,0,1-.24.7Z"/>
          <ellipse class="cls-9" cx="859.9" cy="297.98" rx="0.98" ry="1.76" transform="translate(-37.03 143.94) rotate(-9.37)"/>
          <ellipse class="cls-9" cx="870.2" cy="296.28" rx="0.98" ry="1.76" transform="translate(-36.62 145.6) rotate(-9.37)"/>
          <path class="cls-9" d="M872.12,305.13s-6.69,1.79-10.39,1.08c0,0,2.56,3.23,6.22,2.3S872.12,305.13,872.12,305.13Z"/>
          <path class="cls-3" d="M872.44,286.5s-8.7,6.3-19.62,6.78l.31,9.72s-10.18-18.75,10-22.08,14.27,17.63,14.27,17.63S876.73,289.52,872.44,286.5Z"/>
          <path class="cls-8" d="M865.32,302.52l-.06-.84s1.17-.09,1.47-.81c.12-.3-.37-1.24-.81-2.07a15.91,15.91,0,0,1-1.68-4.19l.83-.17a15.19,15.19,0,0,0,1.6,4c.65,1.23,1.11,2.13.84,2.79A2.68,2.68,0,0,1,865.32,302.52Z"/>
          <path class="cls-14" d="M877.16,286.52c-14.63-6.35-28.44,6.82-28.44,6.82s-1.61-10.67,1.21-13.17a16.86,16.86,0,0,1,2.34-1.74c6.46-4.07,15.05-4,19-2.6a4.79,4.79,0,0,1,1.79,1C875.38,279.25,877.16,286.52,877.16,286.52Z"/>
          <path class="cls-7" d="M875.38,284.15a34.61,34.61,0,0,0-23.75,5.15s-.73-6.88.63-10.87c6.46-4.07,15.05-4,19-2.6C873.56,278.45,875.38,284.15,875.38,284.15Z"/>
          <path class="cls-16" d="M849.92,292.09s1.95-8.27,4.57-10.61c4.37-3.88,16.64-5.21,23.08-2.88s0,9.38,0,9.38S867.3,280.62,849.92,292.09Z"/>
        </g>
        <path class="cls-5" d="M868.9,347.07a41,41,0,0,0,13.58,12.36s10.7-9.29,24.58-8.45c0,0-11.5,20.75-21.37,23-5.19,1.21-24-11.22-24-11.22S865.47,349.6,868.9,347.07Z"/>
        <path class="cls-2" d="M850.4,333c4.6-7.48,15.2,3.58,18.81,11.48s6.24,9.58,6.24,9.58-10.6,4.43-10.52,12.37C864.94,366.39,840.37,349.3,850.4,333Z"/>
        <path class="cls-4" d="M882.48,356s6.45-6.33,27.68-14.6l-2.74-8.62c2.43-3.2,6.91-3.2,6.91-3.2s10.87,15.35,9,19.94C922.16,352.4,899.48,355.4,882.48,356Z"/>
        <path class="cls-5" d="M905.72,343.48a5.65,5.65,0,0,1,1-2c.78-1.11.57-3.12.85-3.75s2-3.18,3.06-3.67,2.56-1.31,2.87.1-2,1-3,3a8.93,8.93,0,0,1,4-.31c1.79.42,2.29,2.06.09,2a9.93,9.93,0,0,0-4,1.21s2.3.35,1.93,1.4C911.95,343,909.15,342.05,905.72,343.48Z"/>
      </g>
      <g>
        <path class="cls-22" d="M748.76,372.39c1.9,4.86,9.67,13.18,9.67,13.18s19-11.38,27.74-6.59,15.72,7.71,21.4,5.62-18.68-46.38-18.68-46.38l-31.58-12.05s-.69,8-4.3,9.41-7.46,14.6-7.2,17.1S748.76,372.39,748.76,372.39Z"/>
        <path class="cls-4" d="M784.29,385.86s-8.14,16-25,36.4c0,0-1.72,24.31-46.18,62.56l-4.65-3.66S735,439.69,740.28,427s-2.93-24.37,21.43-56.53Z"/>
        <path class="cls-13" d="M758.38,357.62c-7,13.43-9.36,30.59-9.36,30.59l-3.19,8.05a89.78,89.78,0,0,0,24.4,8.33l5.24-13.88Z"/>
        <path class="cls-5" d="M794.94,384.61s3.47,17.58,2.9,44c0,0,13.68,20.17,2.39,77.72H794.3s-4.84-49-8.54-62.23-17.37-17.34-18.11-57.68Z"/>
        <g>
          <path class="cls-12" d="M798.41,403.48s-11.14,2-30.75,1.08l-.31-2.21-.08-.57-2-14.3a38.54,38.54,0,0,1-3.83-6.13c-.23-.44-.46-.9-.68-1.38-2.64-5.63-5-13.81-2.35-22.35l4.14.19.58,0,13.86.63.59,0,4.55.21.71,0,3,.13s15,13.51,12.33,38.49l.19,3.48,0,.57Z"/>
          <g>
            <path class="cls-13" d="M763.09,357.85c-.39,1.14-3,9.63-1.69,23.5-.23-.44-.46-.9-.68-1.38-1-12.69,1.29-20.61,1.79-22.16.07-.19.1-.28.1-.29l.52.19S763.11,357.77,763.09,357.85Z"/>
            <path class="cls-13" d="M798.3,401.42c-3.94,1-10.63,1.29-17,1.29-5.7,0-11.1-.23-14-.37l-.08-.57c5,.24,18.11.75,26.57-.17l-.54-8.94a56.31,56.31,0,0,0-6.06-25.48c-7.71-1.4-9.83-7.11-10.28-8.72-.07-.26-.1-.41-.1-.42l.54-.09s0,.21.14.54a11.84,11.84,0,0,0,9.37,8,55.16,55.16,0,0,0-4.82-7.84c-.24-.33-.4-.52-.41-.53l.42-.36s.28.33.7.92c2.58,3.5,11.27,16.65,11,33.9l.54,8.89a29.22,29.22,0,0,0,3.89-.69Z"/>
          </g>
        </g>
        <path class="cls-21" d="M769.93,297.38c-4.42-2.43-36.26,10.05-36.26,10.05s-4.71,8.4-1.77,11.7,13.36,1.84,16.55,0,11.65-3.24,11.65-3.24Z"/>
        <path class="cls-15" d="M798.09,270.87a16.64,16.64,0,0,1,9,10.12c2.41,7.58-4.79,26.76-2.3,35.58s2.1,25.47-5.66,29-23.69-2.78-27.11-12.4-1.94-46.08,4.63-58.47S796.51,268.54,798.09,270.87Z"/>
        <path class="cls-21" d="M790.53,303.57c1.73,1.87,6.2-1.46,6.2-1.46s-.09,16.54-4.9,17.8-17.06-13-16.55-16.91S786.68,299.42,790.53,303.57Z"/>
        <path class="cls-3" d="M772,299.43a33.92,33.92,0,0,0,13.33,6.09c8.47,2,13.06-2,17.39,3.44,6.5,8.2-4.08,23.31-9.64,31.14-2.07,2.92-6.45,11-7.34,18.78,0,0-14.7,4.27-27.37-1.27l-.95-18S749.44,315.29,772,299.43Z"/>
        <path class="cls-21" d="M787.2,317s6.71-16,8.66-17,6.88,1.43,7.87,3.62,0,7,0,7S798.43,304.49,787.2,317Z"/>
        <path class="cls-10" d="M819.36,384.6c-3.05,6.25-10.55,8-10.55,8s-.57-.87-1.52-2.42c-.1-.16-.21-.33-.31-.51-5.9-9.56-23.91-40.15-23.56-56.06a41.51,41.51,0,0,1,12.81-29.44c6.3,1.5,8.28,3.22,8.28,3.22a77.78,77.78,0,0,1,.18,23.83c-1.94,13-5.47,16.44-3.7,17.42s0,2.91,0,2.91,10.45,14.56,12.4,19.09l4.76,11.1c.09.22.18.44.27.64Z"/>
        <path class="cls-5" d="M801.21,307.44s-7.48,5.55-3.12,14l20.73,21.47C807.44,355,806.31,360,798.09,365.62l3.12,4.84s28.81-22.14,28.85-27.53C830.08,340.61,812.47,312.71,801.21,307.44Z"/>
        <path class="cls-5" d="M797.63,365.62a62,62,0,0,0-6.44,1.06c-2.49.62-5.81,1.24-5.91,1.76s5.5,0,5.5,0-4.56,1.87-4.67,2.6,5.81-.52,5.81-.52-3.73,2.28-3.53,2.9,4.81-.93,4.81-.93a14.51,14.51,0,0,1-1.74,3.21s.89.49,2.7-1.52,4.69-1.36,7-3.14S799.71,365.35,797.63,365.62Z"/>
        <path class="cls-10" d="M776.45,302.1s-5.69,3.68-9.29,12.56-14.94,25.6-17.59,29.91-.81,27.82-.81,27.82-3.33-14.25-4.81-19.8,4.78-19.27,5.72-20,5.75.6,4.83-5,12-29.57,15.43-30.24C769.93,297.38,775.45,298.42,776.45,302.1Z"/>
        <path class="cls-10" d="M758.85,303.3a4.16,4.16,0,0,1-.34.56,14.41,14.41,0,0,1-3.69,3.33s-4.34,6.08-4.39,6.78-7.54,6-10.87,5.93h0a1.64,1.64,0,0,1-1.1-.38c-2-1.87,6.73-17.52,8.65-20.9.12-.22.22-.39.29-.5l.08-.14s-1.53-5.71,4.86-4.64c5.32.88,6.37,5.11,6.93,7.94A3,3,0,0,1,758.85,303.3Z"/>
        <path class="cls-5" d="M736.52,309.22c4.39-5.77,19.85-17,28-20.29l2,3.78s-15.73,13.83-19.43,19.75-8.27,8.36-12.65,6.39S735.59,310.43,736.52,309.22Z"/>
        <path class="cls-21" d="M757.32,302.11l-.83,1-.42.49-1.38,1.58s-3.46,4.2-3.33,5.88c.1,1.21-6.57,6.63-11.79,8.88-2.12.92-4,1.32-5.11.69-3.77-2.18-2.93-8.72-.79-13.15,1.87-3.86,10.11-8.85,12.24-10.07a5.61,5.61,0,0,1,.49-.29h0l.79-3.06s2.88-1.73,5.14-.67c0,0-5,.21-4.17,2.15S755.93,302,757.32,302.11Z"/>
        <g>
          <path class="cls-5" d="M775.46,286.09c-5,2.07-4.31,6.62-8.92,6.62-2.85,0-3.23-3.26-3.23-3.26a35.17,35.17,0,0,0,2.29-9.8c.19-2.26.94-1.39.94-1.39,0-.21,0-.41,0-.61-.07-1.52-.34-2.63.65-2s1.52,5,1.52,5c.93-6.28-.46-7.22.63-6.66,1.49.75,1.5,6.31,1.5,6.47,1.2-3.65.88-5.74,1.71-4.91s-.42,7.55-.92,10c-.11.56-.19.9-.19.9C775.41,284.57,775.46,286.09,775.46,286.09Z"/>
          <path class="cls-4" d="M771.62,285.62c-.11.56-.19.9-.19.9a3.68,3.68,0,0,0-3.19,1.81A3.29,3.29,0,0,1,771.62,285.62Z"/>
          <path class="cls-4" d="M766.82,282.76c0-.53.26-3.59-.28-4.51,0-.21,0-.41,0-.61C767.68,277.89,766.94,282.12,766.82,282.76Z"/>
        </g>
        <path class="cls-21" d="M769.94,309.25s3.4-9.21,4.48-11.27,6.71-1.7,11-.91,5.13,6.5,5.13,6.5S777.56,297.45,769.94,309.25Z"/>
        <path class="cls-4" d="M791.83,291.12a37.07,37.07,0,0,0-4,15.86s-6.61,4.5-9-1.14a42.77,42.77,0,0,0,1.3-17.33C779.32,281.84,791.83,291.12,791.83,291.12Z"/>
        <g>
          <path class="cls-5" d="M778.84,280.68s-1.21-4.31-3.36-1.28c-2.49,3.51,0,6.92,1.38,6.11S778.84,280.68,778.84,280.68Z"/>
          <path class="cls-5" d="M798.07,291.77s4.31-1.2,2.84,2.21c-1.71,4-5.94,3.55-5.94,2S798.07,291.77,798.07,291.77Z"/>
          <path class="cls-5" d="M780.6,299.48c-6.13-3.45-7.33-9.4-.57-21.4,3.49-6.19,8.77-8.21,15.64-4.35s7.61,9.29,4.13,15.48C792.53,302.11,786.93,303,780.6,299.48Z"/>
          <ellipse class="cls-8" cx="793.83" cy="291.81" rx="1.3" ry="1.62" transform="matrix(0.33, -0.94, 0.94, 0.33, 253.88, 942.78)"/>
          <ellipse class="cls-8" cx="781.21" cy="284.7" rx="1.3" ry="1.62" transform="translate(115.97 783.5) rotate(-56.89)"/>
          <path class="cls-9" d="M796.23,284.59a.35.35,0,0,1-.34-.27,4,4,0,0,0-1.88-2.18.35.35,0,0,1,.33-.62,4.7,4.7,0,0,1,2.23,2.63.35.35,0,0,1-.25.43Z"/>
          <path class="cls-9" d="M787.82,278.6a.35.35,0,0,1-.18-.05,4,4,0,0,0-2.84-.47.35.35,0,1,1-.2-.67A4.69,4.69,0,0,1,788,278a.35.35,0,0,1-.18.65Z"/>
          <ellipse class="cls-9" cx="792.94" cy="287.06" rx="1.58" ry="0.88" transform="translate(153.74 837.14) rotate(-60.62)"/>
          <ellipse class="cls-9" cx="784.35" cy="282.46" rx="1.58" ry="0.88" transform="translate(153.36 827.29) rotate(-60.61)"/>
          <path class="cls-9" d="M782.14,290.7s3.52,2.68,6.06,2.76c0,0-2.7,2.2-4.64.77A3.5,3.5,0,0,1,782.14,290.7Z"/>
          <path class="cls-9" d="M791.86,286s1.61-1.56,2.27-1,.31,2.47.31,2.47l1.41,0-1.17-.47s.38-2-.35-2.41C793.31,284,791.86,286,791.86,286Z"/>
          <path class="cls-9" d="M785.78,282.84s.5-2.19-.31-2.47-2.27,1-2.27,1l-.76-1.19,1,.75s1.51-1.36,2.24-.95C786.71,280.58,785.78,282.84,785.78,282.84Z"/>
          <path class="cls-15" d="M797.3,276.3a3.51,3.51,0,0,0-5.23-.63c-3,2.42-9.87,6.3-13.23,5s7.36-15.61,16.67-11.41,8.47,17.86,4.6,22.2-2,.3-2,.3a48.75,48.75,0,0,1,1.55-10.25C800.91,277.44,797.3,276.3,797.3,276.3Z"/>
          <path class="cls-8" d="M787,289.3a2.18,2.18,0,0,1-.53-.07l.19-.74a.87.87,0,0,0,1.08-.36.94.94,0,0,0,0-1c-.1-.1-.26-.09-.49,0l-.35-.67a1.09,1.09,0,0,1,1.39.12,1.66,1.66,0,0,1,.09,1.9A1.55,1.55,0,0,1,787,289.3Z"/>
        </g>
        <g>
          <path class="cls-21" d="M831.85,342.07c-.37,5.38-13.69,22.92-15.91,23.54a5.93,5.93,0,0,0-1.72.85c-.23.17-.47.34-.69.52a16.84,16.84,0,0,0-2.22,2.2c-3.89-.26-14.8-5.31-11.29-6.42a2.67,2.67,0,0,0,.7-.37,4,4,0,0,0,.46-.36c4.13-3.46,12.17-17.52,12.22-18.59s1.43-1.39,1.43-1.39-7.58-11.14-12-12.48-6.62-6.66-6.62-6.66c-4.34-18.37,8.28-15.49,8.28-15.49C813.82,313,832.21,336.67,831.85,342.07Z"/>
          <path class="cls-22" d="M814.22,366.46c-.23.17-.47.34-.69.52a27.79,27.79,0,0,1-12.81-4.59,4,4,0,0,0,.46-.36A27,27,0,0,0,814.22,366.46Z"/>
        </g>
        <path class="cls-22" d="M758.85,303.3a4.16,4.16,0,0,1-.34.56,14.27,14.27,0,0,1-2.44-.3,18.35,18.35,0,0,1-9-4.93c-.46-.44-.85-.87-1.2-1.25a5.61,5.61,0,0,1,.49-.29c.29.32.62.68,1,1a17.67,17.67,0,0,0,9.09,4.94A13.53,13.53,0,0,0,758.85,303.3Z"/>
        <path class="cls-22" d="M818.43,382.43a15.65,15.65,0,0,1-11.14,7.81c-.1-.16-.21-.33-.31-.51a15.24,15.24,0,0,0,11.18-7.94C818.25,382,818.34,382.23,818.43,382.43Z"/>
        <g>
          <path class="cls-7" d="M717.38,483.45a19.54,19.54,0,0,0-2.83,3.87c-1.44,2.51.14,4.82-6.84,10.64,0,0-14.09-8.25-20.45-18.85a4.1,4.1,0,0,1,3.19-3.74c1.65-.38,6.21,1.75,10.58,2.58a18.09,18.09,0,0,0,1.85.26,10.79,10.79,0,0,0,2.24,0,6.62,6.62,0,0,0,1.89-.46h0a5.61,5.61,0,0,0,3.28-3.94s3.74,2.13,1.24,5.74C711.54,479.53,716,477.59,717.38,483.45Z"/>
          <path class="cls-2" d="M707.71,498s-14.09-8.25-20.45-18.85c0,0,2.36-.5,4.32,3S708.85,493.62,707.71,498Z"/>
          <path class="cls-2" d="M707.77,481.28c-1.14,1.81-1.12-1.53-2.64-3.1a6.62,6.62,0,0,0,1.89-.46h0C707.7,478.46,708.67,479.87,707.77,481.28Z"/>
          <path class="cls-2" d="M703.34,481.38c-1.21,1.14-1.6-1.84-2.31-3.44a18.09,18.09,0,0,0,1.85.26C703.59,479.16,704.26,480.51,703.34,481.38Z"/>
        </g>
        <g>
          <path class="cls-7" d="M804.06,520.05H784.13a11.71,11.71,0,0,1,0-5.83c.36-1.32,2.42-2.55,4.34-4.27a15.38,15.38,0,0,0,1.52-1.54,8.93,8.93,0,0,0,1-1.45,7.24,7.24,0,0,0,.82-2.08,9.12,9.12,0,0,0-.67-5.42s6.78-1.42,9.2,2.28c0,0,.23-1.71,2.39-.57a31.62,31.62,0,0,0,.11,6.31C803.28,510.34,806,511.17,804.06,520.05Z"/>
          <path class="cls-2" d="M798.87,508.05a.89.89,0,0,1-.67.3,1,1,0,0,1-.59-.2A7.28,7.28,0,0,0,791,507a7.24,7.24,0,0,0,.82-2.08c1.33-.49,3.84-.78,6.94,1.87A.91.91,0,0,1,798.87,508.05Z"/>
          <path class="cls-2" d="M797.2,511.36l-.11.17a.91.91,0,0,1-1.22.3c-1.35-.8-4.4-2.31-7.39-1.88a15.38,15.38,0,0,0,1.52-1.54,7.93,7.93,0,0,1,7,1.74A.93.93,0,0,1,797.2,511.36Z"/>
        </g>
      </g>
    </g>
    <g>
      <path class="cls-23" d="M1022.58,505.32c0,8.27-11.13,15-24.85,15h0c-13.72,0-24.84-6.7-24.84-15V408.66c0-8.27,11.12-15,24.84-15h0c13.72,0,24.85,6.7,24.85,15Z"/>
      <path class="cls-23" d="M1010.91,508.74c0,6.38-11.47,11.55-25.62,11.55H965.13c-14.15,0-25.62-5.17-25.62-11.55V405.24c0-6.38,11.47-11.55,25.62-11.55h20.17c14.15,0,25.62,5.17,25.62,11.55Z"/>
      <path class="cls-24" d="M968.28,505.32a15,15,0,0,1-15,15h0a15,15,0,0,1-15-15V408.66a15,15,0,0,1,15-15h0a15,15,0,0,1,15,15Z"/>
      <rect class="cls-25" x="1032.04" y="318.6" width="110.35" height="164.61" rx="34.65" ry="34.65"/>
      <rect class="cls-26" x="1000.86" y="451.56" width="124.88" height="65.15"/>
      <rect class="cls-27" x="983.92" y="442.36" width="158.77" height="38.24" rx="6.7" ry="6.7"/>
      <rect class="cls-26" x="1007.78" y="318.6" width="110.35" height="164.61" rx="34.65" ry="34.65"/>
      <g class="cls-28">
        <path d="M1116.07,341.46a79.44,79.44,0,0,1,1.49,15.27c0,43.38-34.88,78.55-77.9,78.55a77.06,77.06,0,0,1-31.87-6.88v20.16a34.66,34.66,0,0,0,34.65,34.65h41a34.65,34.65,0,0,0,34.65-34.65v-95.3A34.53,34.53,0,0,0,1116.07,341.46Z"/>
      </g>
      <rect class="cls-26" x="976.6" y="451.56" width="124.88" height="68.73"/>
      <rect class="cls-27" x="959.66" y="442.36" width="158.77" height="38.24" rx="6.7" ry="6.7"/>
      <path class="cls-23" d="M1178.12,505.32c0,8.27-11.24,15-25.1,15h0c-13.85,0-25.09-6.7-25.09-15V408.66c0-8.27,11.24-15,25.09-15h0c13.86,0,25.1,6.7,25.1,15Z"/>
      <path class="cls-23" d="M1166.33,508.74c0,6.38-11.59,11.55-25.87,11.55H1120.1c-14.29,0-25.87-5.17-25.87-11.55V405.24c0-6.38,11.59-11.55,25.87-11.55h20.36c14.29,0,25.87,5.17,25.87,11.55Z"/>
      <path class="cls-24" d="M1120,505.32a15,15,0,0,1-15,15h0a15,15,0,0,1-15-15V408.66a15,15,0,0,1,15-15h0a15,15,0,0,1,15,15Z"/>
      <path class="cls-29" d="M1007.78,353.26V393a72.56,72.56,0,0,0,10.21.73c34.81,0,63-24.61,63-55a48.72,48.72,0,0,0-4.37-20.11h-34.22A34.66,34.66,0,0,0,1007.78,353.26Z"/>
      <g>
        <g>
          <path class="cls-30" d="M1044.64,353.4a5.55,5.55,0,0,0-10.07,4.64l0,.06a3.78,3.78,0,1,0,5.75,4.16,5.26,5.26,0,1,0,4.29-8.86Z"/>
          <path class="cls-31" d="M1045.51,361.95a5.27,5.27,0,0,1-5.79-1.27,3.78,3.78,0,0,1-6.73,1.14,3.68,3.68,0,0,0,.23.83,3.78,3.78,0,0,0,7.14-.39,5.26,5.26,0,0,0,8.32-6.36A5.26,5.26,0,0,1,1045.51,361.95Z"/>
          <path class="cls-32" d="M1040.89,355.08a1.42,1.42,0,0,0-.23.12v0a1.48,1.48,0,1,0-2.74,1.13h0a1.86,1.86,0,1,0,2.7,1.84,1.74,1.74,0,1,0,.29-3.08Z"/>
        </g>
        <g>
          <path class="cls-30" d="M1044.64,353.4a5.55,5.55,0,0,0-10.07,4.64l0,.06a3.78,3.78,0,1,0,5.75,4.16,5.26,5.26,0,1,0,4.29-8.86Z"/>
          <path class="cls-31" d="M1045.51,361.95a5.27,5.27,0,0,1-5.79-1.27,3.78,3.78,0,0,1-6.73,1.14,3.68,3.68,0,0,0,.23.83,3.78,3.78,0,0,0,7.14-.39,5.26,5.26,0,0,0,8.32-6.36A5.26,5.26,0,0,1,1045.51,361.95Z"/>
          <path class="cls-32" d="M1040.89,355.08a1.42,1.42,0,0,0-.23.12v0a1.48,1.48,0,1,0-2.74,1.13h0a1.86,1.86,0,1,0,2.7,1.84,1.74,1.74,0,1,0,.29-3.08Z"/>
        </g>
        <path class="cls-33" d="M1043.33,350.85a4.82,4.82,0,0,0-1.16.15,4.08,4.08,0,1,0-7.05,4.06,5.87,5.87,0,1,0,8.1,5.42h.11a4.82,4.82,0,1,0,0-9.63Z"/>
        <path class="cls-33" d="M1034.58,351.72a4.07,4.07,0,0,0-.15,1.08,3.9,3.9,0,0,0,0,.45,5.83,5.83,0,0,1,.65-.32A4,4,0,0,1,1034.58,351.72Z"/>
        <path class="cls-34" d="M1043.33,358.34h-.11a5.86,5.86,0,0,1-11.63,1.07,5.87,5.87,0,1,0,11.63,1.07h.11a4.82,4.82,0,0,0,4.82-4.82,4.91,4.91,0,0,0-.12-1.07A4.81,4.81,0,0,1,1043.33,358.34Z"/>
        <path class="cls-33" d="M1035.12,355.06a4.05,4.05,0,0,1-.65-1.81,5.82,5.82,0,0,0-2.88,6.17A5.86,5.86,0,0,1,1035.12,355.06Z"/>
        <path class="cls-32" d="M1039.75,354a1.1,1.1,0,0,0-.14.16h0a1.16,1.16,0,1,0-1.67,1.62h0a1.46,1.46,0,1,0,2.5.56,1.37,1.37,0,1,0-.69-2.33Z"/>
        <g>
          <path class="cls-33" d="M1037.63,344.53a3.45,3.45,0,0,0-.84.05,2.95,2.95,0,1,0-5.27,2.62,4.24,4.24,0,1,0,5.61,4.27h.08a3.48,3.48,0,1,0,.43-6.95Z"/>
          <path class="cls-33" d="M1031.29,344.77a2.72,2.72,0,0,0-.15.77,2.06,2.06,0,0,0,0,.32,4,4,0,0,1,.48-.2A2.93,2.93,0,0,1,1031.29,344.77Z"/>
          <path class="cls-34" d="M1037.3,349.94h-.08a4.24,4.24,0,0,1-8.44.26,4.12,4.12,0,0,0-.12.77,4.24,4.24,0,0,0,8.47.52h.08a3.48,3.48,0,0,0,3.69-3.26,3.34,3.34,0,0,0,0-.78A3.48,3.48,0,0,1,1037.3,349.94Z"/>
          <path class="cls-33" d="M1031.52,347.2a2.92,2.92,0,0,1-.39-1.34,4.18,4.18,0,0,0-2.35,4.32A4.24,4.24,0,0,1,1031.52,347.2Z"/>
          <path class="cls-32" d="M1035.19,347.18l-.13.14h0a1.07,1.07,0,1,0-1.62,1.4h0a1.35,1.35,0,1,0,2.27.65,1.26,1.26,0,1,0-.5-2.17Z"/>
        </g>
        <g>
          <path class="cls-35" d="M1030.83,339.12a3.72,3.72,0,0,0-.55,0v0a3.07,3.07,0,1,0-6.14,0v0a3.86,3.86,0,1,0,3.71,5.65,3.61,3.61,0,1,0,3-5.66Z"/>
          <path class="cls-36" d="M1030.83,344.86a3.61,3.61,0,0,1-3-1.56,3.86,3.86,0,0,1-7.2-1.07,3.92,3.92,0,0,0-.07.75,3.86,3.86,0,0,0,7.27,1.8,3.61,3.61,0,0,0,6.59-2.05,3.55,3.55,0,0,0-.08-.74A3.62,3.62,0,0,1,1030.83,344.86Z"/>
          <path class="cls-32" d="M1028.3,339.93a1.09,1.09,0,0,0-.26,0,.92.92,0,1,0-1.59.92,1.33,1.33,0,1,0,1.83,1.23h0a1.09,1.09,0,0,0,0-2.18Z"/>
        </g>
        <g>
          <path class="cls-30" d="M1008.89,343.69a4.08,4.08,0,0,0-7.87,2.15s0,0,0,0a2.78,2.78,0,1,0,3.67,3.72,3.87,3.87,0,1,0,4.19-5.91Z"/>
          <path class="cls-31" d="M1008.48,350a3.87,3.87,0,0,1-4-1.62,2.78,2.78,0,0,1-5,0,2.66,2.66,0,0,0,.06.63,2.78,2.78,0,0,0,5.23.58,3.87,3.87,0,0,0,7-3,3.63,3.63,0,0,0-.19-.61A3.87,3.87,0,0,1,1008.48,350Z"/>
          <path class="cls-37" d="M1006,344.45l-.18.06v0a1.09,1.09,0,1,0-2.12.49h0a1.37,1.37,0,1,0,1.73,1.66,1.28,1.28,0,1,0,.58-2.2Z"/>
        </g>
        <g>
          <path class="cls-30" d="M1022.2,342.88a4.08,4.08,0,0,0-8.15-.49.17.17,0,0,1,0,0,2.78,2.78,0,1,0,2.29,4.7,3.87,3.87,0,1,0,5.86-4.26Z"/>
          <path class="cls-31" d="M1019.8,348.72a3.87,3.87,0,0,1-3.32-2.84,2.78,2.78,0,0,1-4.77-1.6,2.92,2.92,0,0,0-.14.62,2.78,2.78,0,0,0,4.77,2.23,3.87,3.87,0,0,0,7.59-.6,3.57,3.57,0,0,0,0-.64A3.87,3.87,0,0,1,1019.8,348.72Z"/>
          <path class="cls-32" d="M1019.19,342.66h-.2v0a1.09,1.09,0,1,0-2.17-.22h0a1.37,1.37,0,1,0,1.11,2.13,1.28,1.28,0,1,0,1.25-1.9Z"/>
        </g>
        <g>
          <path class="cls-33" d="M1011.3,355.1a4.82,4.82,0,0,0-.94-.69,4.08,4.08,0,1,0-7.91-1.91,5.87,5.87,0,1,0,2.14,9.51h0l.07.08a4.81,4.81,0,1,0,6.63-7Z"/>
          <path class="cls-33" d="M1004.36,349.71a4.12,4.12,0,0,0-.85.68,3.82,3.82,0,0,0-.29.35,5.91,5.91,0,0,1,.69.22A4.14,4.14,0,0,1,1004.36,349.71Z"/>
          <path class="cls-34" d="M1006.14,360.54l-.07-.08h0a5.87,5.87,0,0,1-9.17-7.24,5.77,5.77,0,0,0-.81.71,5.87,5.87,0,0,0,8.51,8.08h0l.07.08a4.82,4.82,0,0,0,6.81-.18,4.88,4.88,0,0,0,.64-.86A4.81,4.81,0,0,1,1006.14,360.54Z"/>
          <path class="cls-33" d="M1002.45,352.5a4,4,0,0,1,.77-1.76,5.83,5.83,0,0,0-6.34,2.49A5.88,5.88,0,0,1,1002.45,352.5Z"/>
          <path class="cls-32" d="M1006.35,355.74l-.26,0v0a1.48,1.48,0,0,0-3,0h0a1.86,1.86,0,1,0,1.82,2.71,1.74,1.74,0,1,0,1.41-2.75Z"/>
        </g>
        <g>
          <path class="cls-30" d="M1021.52,355.06a5.55,5.55,0,0,0-11.08.54s0,0,0,.06a3.78,3.78,0,1,0,3.78,6,5.26,5.26,0,1,0,7.29-6.61Z"/>
          <path class="cls-31" d="M1019.12,363.31a5.26,5.26,0,0,1-4.9-3.34,3.78,3.78,0,0,1-6.67-1.46,3.78,3.78,0,0,0,6.67,3.16,5.26,5.26,0,0,0,10.09-2.79A5.26,5.26,0,0,1,1019.12,363.31Z"/>
          <path class="cls-32" d="M1017.41,355.21l-.26,0s0,0,0,0a1.48,1.48,0,1,0-3,0h0A1.86,1.86,0,1,0,1016,358a1.74,1.74,0,1,0,1.41-2.75Z"/>
        </g>
        <g>
          <path class="cls-30" d="M1030.11,355.28a5.55,5.55,0,0,0-5.6-9.57l-.06,0a3.78,3.78,0,1,0-3.58,6.13,5.26,5.26,0,1,0,9.24,3.41Z"/>
          <path class="cls-31" d="M1021.69,357a5.26,5.26,0,0,1,.7-5.89,3.77,3.77,0,0,1-1.8-6.59,3.73,3.73,0,0,0-.8.31,3.78,3.78,0,0,0,1.09,7.07,5.26,5.26,0,0,0,6.41,8.12,5.4,5.4,0,0,0,.73-.47A5.26,5.26,0,0,1,1021.69,357Z"/>
          <path class="cls-32" d="M1028.07,351.71a1.89,1.89,0,0,0-.14-.22h0a1.48,1.48,0,1,0-1.39-2.61h0a1.86,1.86,0,1,0-1.57,2.86,1.74,1.74,0,1,0,3.09,0Z"/>
        </g>
        <g>
          <path class="cls-35" d="M1031.81,354.49a4.28,4.28,0,0,0-.66.06v-.06a3.7,3.7,0,1,0-7.39,0v0a4.65,4.65,0,1,0,4.47,6.81,4.35,4.35,0,1,0,3.58-6.82Z"/>
          <path class="cls-36" d="M1031.81,361.41a4.35,4.35,0,0,1-3.58-1.88,4.65,4.65,0,0,1-8.67-1.28,4.8,4.8,0,0,0-.09.9,4.65,4.65,0,0,0,8.76,2.17,4.35,4.35,0,0,0,7.93-2.47,4.43,4.43,0,0,0-.09-.89A4.36,4.36,0,0,1,1031.81,361.41Z"/>
          <path class="cls-37" d="M1028.77,355.47a1.33,1.33,0,0,0-.32,0,1.11,1.11,0,0,0-2.11.49,1.09,1.09,0,0,0,.19.62,1.6,1.6,0,1,0,2.21,1.48h0a1.31,1.31,0,0,0,0-2.62Z"/>
        </g>
        <g>
          <path class="cls-35" d="M1017.58,346.24a3.73,3.73,0,0,0-.55,0s0,0,0,0a3.07,3.07,0,0,0-6.14,0h0a3.86,3.86,0,1,0,3.7,5.65,3.61,3.61,0,1,0,3-5.66Z"/>
          <path class="cls-36" d="M1017.58,352a3.62,3.62,0,0,1-3-1.56,3.86,3.86,0,0,1-7.2-1.07,3.91,3.91,0,0,0-.07.75,3.86,3.86,0,0,0,7.27,1.8,3.61,3.61,0,0,0,6.59-2.05,3.56,3.56,0,0,0-.08-.74A3.61,3.61,0,0,1,1017.58,352Z"/>
          <path class="cls-32" d="M1015.05,347.06a1.06,1.06,0,0,0-.26,0,.92.92,0,0,0-1.75.41.92.92,0,0,0,.16.51,1.33,1.33,0,1,0,1.83,1.23h0a1.09,1.09,0,1,0,0-2.18Z"/>
        </g>
        <g>
          <path class="cls-30" d="M1031.82,354.42a5.55,5.55,0,0,0-10.07,4.64l0,.06a3.78,3.78,0,1,0,5.75,4.16,5.26,5.26,0,1,0,4.29-8.86Z"/>
          <path class="cls-31" d="M1032.68,363a5.26,5.26,0,0,1-5.79-1.27,3.78,3.78,0,0,1-6.73,1.14,3.68,3.68,0,0,0,.23.83,3.78,3.78,0,0,0,7.14-.39,5.26,5.26,0,0,0,8.32-6.36A5.26,5.26,0,0,1,1032.68,363Z"/>
          <path class="cls-32" d="M1028.07,356.09l-.23.12v0a1.48,1.48,0,0,0-2.74,1.13h0a1.86,1.86,0,1,0,2.7,1.84,1.74,1.74,0,1,0,.28-3.07Z"/>
        </g>
        <g>
          <path class="cls-30" d="M1031.82,354.42a5.55,5.55,0,0,0-10.07,4.64l0,.06a3.78,3.78,0,1,0,5.75,4.16,5.26,5.26,0,1,0,4.29-8.86Z"/>
          <path class="cls-31" d="M1032.68,363a5.26,5.26,0,0,1-5.79-1.27,3.78,3.78,0,0,1-6.73,1.14,3.68,3.68,0,0,0,.23.83,3.78,3.78,0,0,0,7.14-.39,5.26,5.26,0,0,0,8.32-6.36A5.26,5.26,0,0,1,1032.68,363Z"/>
          <path class="cls-32" d="M1028.07,356.09l-.23.12v0a1.48,1.48,0,0,0-2.74,1.13h0a1.86,1.86,0,1,0,2.7,1.84,1.74,1.74,0,1,0,.28-3.07Z"/>
        </g>
        <g>
          <path class="cls-33" d="M1030.51,351.86a4.86,4.86,0,0,0-1.16.15,4.08,4.08,0,1,0-7.05,4.06,5.87,5.87,0,1,0,8.1,5.42h.11a4.81,4.81,0,1,0,0-9.63Z"/>
          <path class="cls-33" d="M1021.76,352.73a4.06,4.06,0,0,0-.15,1.07c0,.15,0,.3,0,.45a6.58,6.58,0,0,1,.65-.32A4.13,4.13,0,0,1,1021.76,352.73Z"/>
          <path class="cls-34" d="M1030.51,359.35h-.11a5.86,5.86,0,0,1-11.63,1.07,5.87,5.87,0,1,0,11.63,1.07h.11a4.81,4.81,0,0,0,4.82-4.81,4.64,4.64,0,0,0-.12-1.07A4.81,4.81,0,0,1,1030.51,359.35Z"/>
          <path class="cls-33" d="M1022.3,356.07a4.1,4.1,0,0,1-.65-1.81,5.82,5.82,0,0,0-2.88,6.17A5.88,5.88,0,0,1,1022.3,356.07Z"/>
          <path class="cls-32" d="M1027.36,355.73l-.17.2v0A1.48,1.48,0,1,0,1025,358h0a1.86,1.86,0,1,0,3.18.71,1.74,1.74,0,1,0-.88-3Z"/>
        </g>
        <g>
          <path class="cls-33" d="M1024.81,345.54a3.52,3.52,0,0,0-.84.05,2.95,2.95,0,0,0-5.66,1,2.91,2.91,0,0,0,.4,1.66,4.24,4.24,0,1,0,5.61,4.27h.08a3.48,3.48,0,0,0,.43-6.95Z"/>
          <path class="cls-33" d="M1018.46,345.78a3,3,0,0,0-.15.77,2.73,2.73,0,0,0,0,.32,4.19,4.19,0,0,1,.49-.2A2.85,2.85,0,0,1,1018.46,345.78Z"/>
          <path class="cls-34" d="M1024.48,350.95h-.08a4.24,4.24,0,0,1-8.44.25,4.53,4.53,0,0,0-.12.77,4.24,4.24,0,0,0,8.47.52h.08a3.48,3.48,0,0,0,3.69-3.26,3.93,3.93,0,0,0,0-.78A3.48,3.48,0,0,1,1024.48,350.95Z"/>
          <path class="cls-33" d="M1018.7,348.21a2.93,2.93,0,0,1-.39-1.34,4.22,4.22,0,0,0-2.35,4.32A4.25,4.25,0,0,1,1018.7,348.21Z"/>
          <path class="cls-32" d="M1022.37,348.19l-.14.14h0a1.07,1.07,0,0,0-1.63,1.4h0a1.35,1.35,0,1,0,2.27.65,1.26,1.26,0,1,0-.5-2.18Z"/>
        </g>
        <g>
          <path class="cls-33" d="M1014.27,332.48a3.45,3.45,0,0,0-.84.05,2.95,2.95,0,1,0-5.27,2.62,4.24,4.24,0,1,0,5.61,4.27h.08a3.48,3.48,0,0,0,.43-6.95Z"/>
          <path class="cls-33" d="M1007.92,332.72a2.86,2.86,0,0,0-.16.77c0,.11,0,.22,0,.32a4.4,4.4,0,0,1,.49-.2A3,3,0,0,1,1007.92,332.72Z"/>
          <path class="cls-34" d="M1013.93,337.88h-.08a4.24,4.24,0,0,1-8.44.25,4.51,4.51,0,0,0-.12.77,4.24,4.24,0,0,0,8.47.52h.08a3.48,3.48,0,0,0,3.69-3.26,3.36,3.36,0,0,0,0-.78A3.48,3.48,0,0,1,1013.93,337.88Z"/>
          <path class="cls-33" d="M1008.16,335.15a3,3,0,0,1-.39-1.34,4.24,4.24,0,0,0-2.38,3.55,4.68,4.68,0,0,0,0,.77A4.26,4.26,0,0,1,1008.16,335.15Z"/>
          <path class="cls-32" d="M1011.82,335.13l-.13.14h0a1.07,1.07,0,0,0-1.62,1.4h0a1.35,1.35,0,1,0,2.27.65,1.26,1.26,0,1,0-.5-2.18Z"/>
        </g>
        <g>
          <path class="cls-35" d="M1018,340.13a3.72,3.72,0,0,0-.55,0s0,0,0,0a3.07,3.07,0,1,0-6.14,0h0a3.86,3.86,0,1,0,3.71,5.65,3.61,3.61,0,1,0,3-5.66Z"/>
          <path class="cls-36" d="M1018,345.87a3.6,3.6,0,0,1-3-1.56,3.86,3.86,0,0,1-7.2-1.06,3.91,3.91,0,0,0-.07.75,3.86,3.86,0,0,0,7.27,1.8,3.61,3.61,0,0,0,6.58-2.05,3.54,3.54,0,0,0-.08-.74A3.61,3.61,0,0,1,1018,345.87Z"/>
          <path class="cls-32" d="M1015.48,340.94a1.07,1.07,0,0,0-.26,0,.92.92,0,1,0-1.59.92,1.33,1.33,0,1,0,1.83,1.23h0a1.09,1.09,0,1,0,0-2.18Z"/>
        </g>
        <g>
          <path class="cls-30" d="M995.22,344.7a4.08,4.08,0,0,0-7.87,2.15v0a2.78,2.78,0,1,0,3.67,3.72,3.87,3.87,0,1,0,4.19-5.91Z"/>
          <path class="cls-31" d="M994.81,351a3.88,3.88,0,0,1-4.05-1.63,2.78,2.78,0,0,1-5,0,2.9,2.9,0,0,0,.06.63,2.78,2.78,0,0,0,5.23.58,3.87,3.87,0,0,0,7-3,3.67,3.67,0,0,0-.19-.61A3.87,3.87,0,0,1,994.81,351Z"/>
          <path class="cls-37" d="M992.29,345.46l-.19.06v0A1.09,1.09,0,1,0,990,346h0a1.37,1.37,0,1,0,1.73,1.66,1.28,1.28,0,1,0,.58-2.2Z"/>
        </g>
        <g>
          <path class="cls-30" d="M1004.65,340.88a4.09,4.09,0,0,0-8.08,1.14.19.19,0,0,0,0,0,2.78,2.78,0,1,0,3.17,4.15,3.87,3.87,0,1,0,4.9-5.33Z"/>
          <path class="cls-31" d="M1003.45,347.08a3.87,3.87,0,0,1-3.82-2.12,2.78,2.78,0,0,1-5-.62,2.61,2.61,0,0,0,0,.63,2.78,2.78,0,0,0,5.12,1.24,3.88,3.88,0,0,0,7.32-2.09,3.83,3.83,0,0,0-.12-.63A3.87,3.87,0,0,1,1003.45,347.08Z"/>
          <path class="cls-37" d="M1001.65,341.26l-.19,0a0,0,0,0,0,0,0,1.09,1.09,0,1,0-2.17.22h0a1.37,1.37,0,1,0,1.51,1.87,1.28,1.28,0,1,0,.85-2.11Z"/>
        </g>
        <g>
          <path class="cls-30" d="M1009.38,343.89a4.09,4.09,0,0,0-8.15-.49v0a2.78,2.78,0,1,0,2.29,4.7,3.87,3.87,0,1,0,5.86-4.26Z"/>
          <path class="cls-31" d="M1007,349.73a3.87,3.87,0,0,1-3.32-2.84,2.78,2.78,0,0,1-4.76-1.6,2.7,2.7,0,0,0-.14.62,2.78,2.78,0,0,0,4.77,2.23,3.87,3.87,0,0,0,7.59-.6,4,4,0,0,0,0-.64A3.87,3.87,0,0,1,1007,349.73Z"/>
          <path class="cls-32" d="M1006.36,343.67h-.2a0,0,0,0,0,0,0,1.09,1.09,0,0,0-2.17-.22h0a1.37,1.37,0,1,0,1.11,2.13,1.28,1.28,0,1,0,1.25-1.9Z"/>
        </g>
        <path class="cls-33" d="M997.63,356.11a4.81,4.81,0,0,0-.94-.69,4.08,4.08,0,1,0-7.91-1.91,5.87,5.87,0,1,0,2.14,9.51h0l.08.08a4.81,4.81,0,0,0,6.63-7Z"/>
        <path class="cls-33" d="M990.69,350.72a4,4,0,0,0-.85.68,3.61,3.61,0,0,0-.29.35,5.93,5.93,0,0,1,.69.22A4,4,0,0,1,990.69,350.72Z"/>
        <path class="cls-34" d="M992.47,361.55l-.07-.08h0a5.87,5.87,0,0,1-9.17-7.24,5.87,5.87,0,1,0,7.7,8.79h0l.08.08a4.81,4.81,0,0,0,6.8-.18,4.62,4.62,0,0,0,.65-.86A4.81,4.81,0,0,1,992.47,361.55Z"/>
        <path class="cls-33" d="M988.78,353.51a4,4,0,0,1,.77-1.76,5.86,5.86,0,0,0-5.68,1.65,5.8,5.8,0,0,0-.66.84A5.88,5.88,0,0,1,988.78,353.51Z"/>
        <path class="cls-32" d="M991.11,355.65l-.19,0v0a1.08,1.08,0,0,0-2.15,0h0a1.35,1.35,0,1,0,1.32,2,1.27,1.27,0,1,0,1-2Z"/>
        <g>
          <path class="cls-30" d="M1008.69,356.07a5.55,5.55,0,0,0-11.07.54s0,0,0,.06a3.78,3.78,0,1,0,3.78,6,5.26,5.26,0,1,0,7.29-6.61Z"/>
          <path class="cls-31" d="M1006.3,364.32a5.27,5.27,0,0,1-4.9-3.34,3.78,3.78,0,0,1-6.67-1.46,4,4,0,0,0-.1.85,3.78,3.78,0,0,0,6.77,2.31,5.26,5.26,0,0,0,10.1-2.79A5.26,5.26,0,0,1,1006.3,364.32Z"/>
          <path class="cls-32" d="M1004.59,356.22l-.26,0v0a1.48,1.48,0,0,0-3,0h0a1.86,1.86,0,1,0,1.81,2.71,1.74,1.74,0,1,0,1.41-2.75Z"/>
        </g>
        <g>
          <path class="cls-30" d="M1017.29,356.29a5.55,5.55,0,0,0-5.6-9.57l-.06,0a3.78,3.78,0,1,0-3.58,6.13,5.26,5.26,0,1,0,9.24,3.41Z"/>
          <path class="cls-31" d="M1008.87,358a5.27,5.27,0,0,1,.7-5.89,3.78,3.78,0,0,1-1.8-6.59,3.78,3.78,0,0,0,.28,7.38,5.26,5.26,0,0,0,6.41,8.12,5.1,5.1,0,0,0,.73-.47A5.26,5.26,0,0,1,1008.87,358Z"/>
          <path class="cls-32" d="M1015.25,352.72a2,2,0,0,0-.14-.22h0a1.48,1.48,0,0,0-1.39-2.62h0a1.86,1.86,0,1,0-1.57,2.86,1.75,1.75,0,1,0,3.09,0Z"/>
        </g>
        <path class="cls-35" d="M1019,355.5a4.34,4.34,0,0,0-.66.05s0,0,0-.05a3.7,3.7,0,1,0-7.39,0v0a4.65,4.65,0,1,0,4.47,6.8,4.35,4.35,0,1,0,3.58-6.82Z"/>
        <path class="cls-36" d="M1019,362.42a4.34,4.34,0,0,1-3.58-1.88,4.65,4.65,0,0,1-8.67-1.28,4.48,4.48,0,0,0-.09.9,4.65,4.65,0,0,0,8.76,2.17,4.35,4.35,0,0,0,7.93-2.47,4.41,4.41,0,0,0-.09-.89A4.35,4.35,0,0,1,1019,362.42Z"/>
        <path class="cls-37" d="M1015,357.73l-.22,0a.78.78,0,0,0-1.49.34.8.8,0,0,0,.13.43,1.13,1.13,0,1,0,1.55,1h0a.92.92,0,0,0,0-1.85Z"/>
        <g>
          <path class="cls-35" d="M1004.75,347.25a3.67,3.67,0,0,0-.55,0v0a3.07,3.07,0,1,0-6.14,0h0a3.86,3.86,0,1,0,3.71,5.65,3.61,3.61,0,1,0,3-5.66Z"/>
          <path class="cls-36" d="M1004.75,353a3.61,3.61,0,0,1-3-1.56,3.86,3.86,0,0,1-7.2-1.07,3.93,3.93,0,0,0-.07.75,3.86,3.86,0,0,0,7.27,1.8,3.61,3.61,0,0,0,6.59-2.05,3.87,3.87,0,0,0-.08-.74A3.62,3.62,0,0,1,1004.75,353Z"/>
          <path class="cls-32" d="M1002.23,348.07a1.12,1.12,0,0,0-.26,0,.92.92,0,0,0-1.75.41.91.91,0,0,0,.15.51,1.33,1.33,0,1,0,1.83,1.23h0a1.09,1.09,0,0,0,0-2.18Z"/>
        </g>
        <path class="cls-38" d="M988.93,365.7h-7.55a4.4,4.4,0,0,0,.17,1.09q5.58,36.37,11.15,72.73h5q-4.35-36.49-8.69-73A4.32,4.32,0,0,1,988.93,365.7Z"/>
        <path class="cls-39" d="M1019.12,365.7q-.63,36.91-1.26,73.83h5l3.77-73.83Z"/>
        <path class="cls-40" d="M1026.67,365.7l-3.77,73.83h5l6.28-73.83Z"/>
        <path class="cls-40" d="M1011.58,365.7q.63,36.91,1.26,73.83h5q.63-36.91,1.26-73.83Z"/>
        <path class="cls-41" d="M1034.22,365.7l-6.28,73.83h5l8.7-73a4.33,4.33,0,0,0,.1-.85Z"/>
        <path class="cls-38" d="M1041.77,365.7a4.33,4.33,0,0,1-.1.85l-8.7,73h5q5.57-36.37,11.14-72.73a4.62,4.62,0,0,0,.17-1.1Z"/>
        <path class="cls-39" d="M1004,365.7q1.88,36.91,3.77,73.83h5q-.63-36.92-1.26-73.83Z"/>
        <path class="cls-40" d="M996.48,365.7l6.28,73.83h5q-1.89-36.91-3.77-73.83Z"/>
        <path class="cls-41" d="M988.93,365.7a4.32,4.32,0,0,0,.11.85q4.34,36.49,8.69,73h5l-6.28-73.83Z"/>
        <path class="cls-42" d="M988.31,410.88q2.19,14.32,4.39,28.65H1038q.66-4.32,1.32-8.64a57.29,57.29,0,0,1-7.84.54A54.67,54.67,0,0,1,988.31,410.88Z"/>
        <rect class="cls-39" x="992.28" y="437.97" width="46.1" height="3.13"/>
        <rect class="cls-43" x="1025.3" y="437.97" width="13.08" height="3.13"/>
        <rect class="cls-43" x="992.28" y="437.97" width="13.58" height="3.13"/>
        <g class="cls-44">
          <polygon class="cls-45" points="999.9 365.7 1004.03 437.97 1016.14 437.97 1016.14 365.7 999.9 365.7"/>
        </g>
        <path class="cls-46" d="M1049.32,365.7H982.15c-.77,0-.77.11-.75.32,3,24.58,20.67,42.32,45.27,42.32a46.77,46.77,0,0,0,16.57-3l5.91-38.53A4.62,4.62,0,0,0,1049.32,365.7Z"/>
        <rect class="cls-43" x="981.38" y="361.7" width="67.94" height="4"/>
        <rect class="cls-39" x="996.61" y="361.7" width="37.38" height="4"/>
      </g>
      <g>
        <path class="cls-47" d="M1084.7,432.87h-32.32a2.33,2.33,0,0,1-2.28-2.37v-2.28a2.33,2.33,0,0,1,2.28-2.38h32.32a2.33,2.33,0,0,1,2.28,2.38v2.28A2.33,2.33,0,0,1,1084.7,432.87Z"/>
        <path class="cls-47" d="M1087,438.32a1.9,1.9,0,0,1-1.9,1.9h-3.17a1.9,1.9,0,0,1-1.9-1.9v-9.77a1.9,1.9,0,0,1,1.9-1.9h3.17a1.9,1.9,0,0,1,1.9,1.9Z"/>
        <path class="cls-48" d="M1052.69,425.84H990.76v16.44h24.8v-6.38a1.8,1.8,0,0,1,1.77-1.84h8.31a1.8,1.8,0,0,1,1.77,1.84v6.38h25.29Z"/>
        <path class="cls-47" d="M1050.93,425.84H989v16.44h24.8v-6.38a1.8,1.8,0,0,1,1.76-1.84h8.32a1.8,1.8,0,0,1,1.76,1.84v6.38h25.29Z"/>
        <path class="cls-48" d="M1011.82,438.64a1.8,1.8,0,0,1-1.76,1.84H992.62a1.8,1.8,0,0,1-1.76-1.84v-9.17a1.8,1.8,0,0,1,1.76-1.84h17.44a1.8,1.8,0,0,1,1.76,1.84Z"/>
        <path class="cls-49" d="M1011.82,438.64a1.76,1.76,0,0,1-1.68,1.84H993.5a1.76,1.76,0,0,1-1.68-1.84v-9.17a1.76,1.76,0,0,1,1.68-1.84h16.64a1.76,1.76,0,0,1,1.68,1.84Z"/>
        <path class="cls-49" d="M1011.82,438.64a1.76,1.76,0,0,1-1.68,1.84H993.5a1.76,1.76,0,0,1-1.68-1.84v-9.17a1.76,1.76,0,0,1,1.68-1.84h16.64a1.76,1.76,0,0,1,1.68,1.84Z"/>
        <path class="cls-48" d="M1048.87,438.64a1.8,1.8,0,0,1-1.76,1.84h-17.44a1.8,1.8,0,0,1-1.77-1.84v-9.17a1.8,1.8,0,0,1,1.77-1.84h17.44a1.8,1.8,0,0,1,1.76,1.84Z"/>
        <path class="cls-50" d="M1048.87,438.64a1.76,1.76,0,0,1-1.67,1.84h-16.49a1.76,1.76,0,0,1-1.66-1.84v-9.17a1.76,1.76,0,0,1,1.66-1.84h16.49a1.76,1.76,0,0,1,1.67,1.84Z"/>
        <polygon class="cls-51" points="997.7 440.48 993.99 440.48 998.67 427.64 1002.38 427.64 997.7 440.48"/>
        <polygon class="cls-51" points="1001.69 440.48 999.49 440.48 1004.17 427.64 1006.36 427.64 1001.69 440.48"/>
        <polygon class="cls-51" points="1003.62 440.48 1002.93 440.48 1007.6 427.64 1008.29 427.64 1003.62 440.48"/>
        <polygon class="cls-52" points="1035.52 440.48 1031.81 440.48 1036.48 427.64 1040.2 427.64 1035.52 440.48"/>
        <polygon class="cls-52" points="1039.51 440.48 1037.31 440.48 1041.98 427.64 1044.19 427.64 1039.51 440.48"/>
        <polygon class="cls-52" points="1041.43 440.48 1040.75 440.48 1045.42 427.64 1046.11 427.64 1041.43 440.48"/>
        <g class="cls-53">
          <polygon class="cls-45" points="989 442.28 990.55 442.28 1029.68 425.84 989 425.84 989 442.28"/>
        </g>
        <path class="cls-48" d="M1085.53,432.87h-32.32a2.33,2.33,0,0,1-2.28-2.37v-2.28a2.33,2.33,0,0,1,2.28-2.38h32.32a2.33,2.33,0,0,1,2.28,2.38v2.28A2.33,2.33,0,0,1,1085.53,432.87Z"/>
        <rect class="cls-48" x="1080.83" y="426.66" width="6.97" height="13.57" rx="1.9" ry="1.9"/>
      </g>
      <g>
        <g>
          <path class="cls-30" d="M1064.87,430.59a5,5,0,0,0-10-.6.27.27,0,0,0,0,.06,3.42,3.42,0,1,0,2.81,5.77,4.76,4.76,0,1,0,7.2-5.23Z"/>
          <path class="cls-31" d="M1061.91,437.77a4.76,4.76,0,0,1-4.08-3.49,3.42,3.42,0,0,1-5.86-2,3.42,3.42,0,0,0,5.69,3.5,4.76,4.76,0,0,0,9.33-.73,5.39,5.39,0,0,0,0-.79A4.76,4.76,0,0,1,1061.91,437.77Z"/>
          <path class="cls-32" d="M1061.16,430.33h-.24v0a1.34,1.34,0,1,0-2.67-.27h0a1.69,1.69,0,1,0,1.36,2.62,1.58,1.58,0,1,0,1.54-2.33Z"/>
        </g>
        <g>
          <path class="cls-30" d="M1078.06,439.2a6.82,6.82,0,0,0-6.88-11.76l-.07,0a4.65,4.65,0,1,0-4.39,7.54,6.47,6.47,0,1,0,11.35,4.19Z"/>
          <path class="cls-31" d="M1067.71,441.28a6.47,6.47,0,0,1,.86-7.24,4.64,4.64,0,0,1-2.21-8.1,4.64,4.64,0,0,0,.35,9.07,6.47,6.47,0,0,0,8.78,9.41A6.47,6.47,0,0,1,1067.71,441.28Z"/>
          <path class="cls-32" d="M1075.55,434.81a2.17,2.17,0,0,0-.17-.27h0a1.82,1.82,0,1,0-1.71-3.21h0a2.29,2.29,0,1,0-1.92,3.52,2.14,2.14,0,1,0,3.79,0Z"/>
        </g>
        <g>
          <path class="cls-35" d="M1059.18,434.72a4.66,4.66,0,0,0-.67.06s0,0,0-.06a3.77,3.77,0,0,0-7.55,0v0a4.74,4.74,0,1,0,4.56,6.94,4.44,4.44,0,1,0,3.65-7Z"/>
          <path class="cls-36" d="M1059.18,441.78a4.43,4.43,0,0,1-3.65-1.92,4.74,4.74,0,0,1-8.85-1.31,5,5,0,0,0-.09.92,4.75,4.75,0,0,0,8.94,2.22,4.44,4.44,0,0,0,8.09-2.52,4.32,4.32,0,0,0-.1-.91A4.44,4.44,0,0,1,1059.18,441.78Z"/>
          <path class="cls-32" d="M1056.08,435.73a1.35,1.35,0,0,0-.32,0,1.13,1.13,0,1,0-2,1.13,1.63,1.63,0,1,0,2.25,1.51h0a1.34,1.34,0,1,0,0-2.67Z"/>
        </g>
      </g>
      <g>
        <rect class="cls-54" x="1015.32" y="479.05" width="179.11" height="40.21"/>
        <rect class="cls-55" x="1015.32" y="479.05" width="189.48" height="6.48"/>
        <rect class="cls-55" x="1015.32" y="516.02" width="189.48" height="6.48"/>
        <rect class="cls-48" x="1015.32" y="480.43" width="6.94" height="42.07"/>
        <rect class="cls-48" x="1056.94" y="480.43" width="6.94" height="42.07"/>
        <rect class="cls-48" x="1100.46" y="480.43" width="6.94" height="42.07"/>
        <rect class="cls-48" x="1143.98" y="480.43" width="6.94" height="42.07"/>
        <rect class="cls-48" x="1187.49" y="480.43" width="6.94" height="42.07"/>
        <rect class="cls-48" x="1015.32" y="480.43" width="6.94" height="42.07"/>
        <rect class="cls-48" x="1056.94" y="480.43" width="6.94" height="42.07"/>
        <rect class="cls-48" x="1100.46" y="480.43" width="6.94" height="42.07"/>
        <rect class="cls-48" x="1143.98" y="480.43" width="6.94" height="42.07"/>
        <rect class="cls-55" x="1187.49" y="480.43" width="6.94" height="42.07"/>
        <rect class="cls-48" x="1015.35" y="479.05" width="185.67" height="6.48"/>
        <rect class="cls-48" x="1015.35" y="516.02" width="185.67" height="6.48"/>
        <rect class="cls-48" x="1183.71" y="480.43" width="6.94" height="42.07"/>
        <polygon class="cls-56" points="1068.14 522.5 1039.13 522.5 1054.51 479.05 1083.52 479.05 1068.14 522.5"/>
        <polygon class="cls-56" points="1092.77 522.5 1083.12 522.5 1098.49 479.05 1108.15 479.05 1092.77 522.5"/>
        <polygon class="cls-56" points="1147.61 522.5 1118.59 522.5 1133.98 479.05 1162.98 479.05 1147.61 522.5"/>
        <polygon class="cls-56" points="1172.24 522.5 1162.58 522.5 1177.96 479.05 1187.62 479.05 1172.24 522.5"/>
        <polygon class="cls-42" points="1190.65 522.5 1015.32 522.5 1015.32 506.94 1190.65 511.64 1190.65 522.5"/>
        <polygon class="cls-42" points="1015.32 479.38 1190.65 479.38 1190.96 485.54 1015.32 491.38 1015.32 479.38"/>
      </g>
    </g>
  </g>
  <rect class="cls-57" width="1280" height="720"/>
</svg>
