<svg id="Layer_1" data-name="Layer 1" xmlns="http://www.w3.org/2000/svg" viewBox="0 0 1280 720"><defs><style>.cls-1{fill:#a9d2d8;opacity:0.3;}.cls-2{fill:#2b478b;}.cls-3{fill:#77a4e5;}.cls-4{fill:#9fc1f4;}.cls-5{fill:#bdd8ff;}.cls-6{fill:#ffa412;}.cls-7{fill:#b64c41;}.cls-8{fill:#afcdfb;}.cls-9{fill:#599dad;opacity:0.2;}.cls-10{fill:#fff;}.cls-11{fill:#4a75cb;}.cls-12{fill:#d9935c;}.cls-13{fill:#233862;}.cls-14{fill:#e27f2b;}.cls-15{fill:#cb7d45;}.cls-16{fill:none;}</style></defs><title>mintenance banner</title><path class="cls-1" d="M562.75,553.63S450.83,321.78,548.34,228.56c135.25-129.31,220.45,36.73,294.47,8.37,38.68-14.82,98.47-53.82,170.63-84.93,84.28-36.34,302,49.49,181,185.5-115.6,130,108.08,135.12-21.18,218.14Z" transform="translate(0 -1.18)"/><rect class="cls-2" x="683.73" y="219.62" width="5.48" height="8.3" transform="translate(1372.94 446.36) rotate(180)"/><rect class="cls-2" x="693.13" y="219.62" width="5.48" height="8.3" transform="translate(1391.74 446.36) rotate(180)"/><rect class="cls-2" x="702.53" y="219.62" width="5.48" height="8.3" transform="translate(1410.53 446.36) rotate(180)"/><rect class="cls-2" x="711.92" y="219.62" width="5.48" height="8.3" transform="translate(1429.33 446.36) rotate(180)"/><rect class="cls-2" x="721.32" y="219.62" width="5.48" height="8.3" transform="translate(1448.12 446.36) rotate(180)"/><rect class="cls-2" x="730.72" y="219.62" width="5.48" height="8.3" transform="translate(1466.92 446.36) rotate(180)"/><rect class="cls-2" x="740.12" y="219.62" width="5.48" height="8.3" transform="translate(1485.71 446.36) rotate(180)"/><rect class="cls-2" x="749.51" y="219.62" width="5.48" height="8.3" transform="translate(1504.51 446.36) rotate(180)"/><rect class="cls-2" x="758.91" y="219.62" width="5.48" height="8.3" transform="translate(1523.31 446.36) rotate(180)"/><rect class="cls-2" x="768.31" y="219.62" width="5.48" height="8.3" transform="translate(1542.1 446.36) rotate(180)"/><rect class="cls-3" x="643.73" y="234.68" width="170.06" height="318.17"/><rect class="cls-4" x="651.63" y="243.44" width="154.26" height="300.15"/><rect class="cls-5" x="732.7" y="252.01" width="73.19" height="282.34"/><rect class="cls-5" x="651.4" y="253.19" width="73.19" height="282.34"/><path class="cls-6" d="M838.75,529.85l2.21,2.21s-11.52.36-31.08-.9c-6.81-.44-14.59-1.07-23.2-2-12.82-1.36-27.47-3.35-43.47-6.23q-8.69-1.56-17.89-3.49-3.27-.69-6.47-1.4c-11.34-2.53-21.95-5.27-31.73-8.05h0c-7.75-2.21-15-4.44-21.64-6.63h0c-12.59-4.14-23.1-8.11-31.16-11.36-11.88-4.8-18.43-8.06-18.43-8.06l5.26-2.92-1.61-4.11,3.77-1,.13-5.1,4.11,1.7s7,3.48,20.09,8.54c8.12,3.12,18.6,6.86,31.25,10.74,6.32,1.94,13.18,3.92,20.56,5.87,10.36,2.75,21.75,5.47,34.09,8q10.88,2.22,22.74,4.22c13.17,2.21,27.23,4.14,42.1,5.65q10.77,1.1,22.11,1.89h0q10.18.7,20.81,1.12l-2.6,3.44,2.36.77-1.48,1.48,2.05,2.74Z" transform="translate(0 -1.18)"/><path class="cls-7" d="M820.48,517.42l-10.59,13.74c-6.81-.44-14.59-1.07-23.2-2l11.69-13.65Q809.14,516.63,820.48,517.42Z" transform="translate(0 -1.18)"/><path class="cls-7" d="M756.27,509.87l-13.05,13.07q-8.69-1.56-17.89-3.49-3.27-.69-6.47-1.4l14.68-12.4Q744.41,507.88,756.27,509.87Z" transform="translate(0 -1.18)"/><path class="cls-7" d="M699.44,497.66,687.13,510h0c-7.75-2.21-15-4.44-21.64-6.63,3.18-2.89,8.47-7.41,13.4-11.58C685.21,493.72,692.06,495.7,699.44,497.66Z" transform="translate(0 -1.18)"/><path class="cls-7" d="M647.63,481l-13.31,11c-11.88-4.8-18.43-8.06-18.43-8.06l5.26-2.92-1.61-4.11,3.77-1,.13-5.1,4.11,1.7S634.5,476,647.63,481Z" transform="translate(0 -1.18)"/><path class="cls-6" d="M797.31,220.13l3.15.9A254.69,254.69,0,0,1,777,236.88c-5.3,3.24-11.45,6.83-18.41,10.59-10.35,5.6-22.48,11.59-36.22,17.46q-7.46,3.19-15.55,6.31-2.88,1.11-5.72,2.15c-10.07,3.7-19.75,6.81-28.86,9.44h0c-7.22,2.08-14.07,3.85-20.47,5.36h0c-12.1,2.85-22.56,4.75-30.73,6-12,1.85-19.1,2.29-19.1,2.29l1.84-5.59-4-3,2.07-3L598.43,280l4.19-.6a206.87,206.87,0,0,0,20.65-2.73c8.12-1.41,18.39-3.51,30.37-6.64,6-1.56,12.38-3.38,19.15-5.49,9.51-3,19.75-6.51,30.55-10.76q9.52-3.74,19.61-8.22c11.19-5,22.85-10.72,34.82-17.27q8.67-4.75,17.54-10.08h0q8-4.8,16.05-10.12l.47,4.65,2.27-.54-.06,2.19,3.4,1.48Z" transform="translate(0 -1.18)"/><path class="cls-7" d="M775.3,218.2,777,236.88c-5.3,3.24-11.45,6.83-18.41,10.59l-.86-19.17Q766.43,223.54,775.3,218.2Z" transform="translate(0 -1.18)"/><path class="cls-7" d="M722.95,245.56l-.54,19.36q-7.46,3.19-15.55,6.31-2.88,1.11-5.72,2.15l2.2-19.6Q712.86,250,722.95,245.56Z" transform="translate(0 -1.18)"/><path class="cls-7" d="M672.79,264.54l-.51,18.27h0c-7.22,2.08-14.07,3.85-20.47,5.36.34-4.44,1.09-11.55,1.83-18.15C659.61,268.47,666,266.66,672.79,264.54Z" transform="translate(0 -1.18)"/><path class="cls-7" d="M623.27,276.68l-2.19,17.51c-12,1.85-19.1,2.29-19.1,2.29l1.84-5.59-4-3,2.07-3L598.43,280l4.19-.6A206.87,206.87,0,0,0,623.27,276.68Z" transform="translate(0 -1.18)"/><rect class="cls-5" x="1009.1" y="237.47" width="177.25" height="313.8"/><rect class="cls-8" x="1011.99" y="237.47" width="115.85" height="313.8"/><polygon class="cls-9" points="924.44 204.08 798.24 554.83 927.91 554.83 924.44 204.08"/><polygon class="cls-4" points="932.05 204.08 932.05 552.85 1009.11 552.85 1009.11 234.05 932.05 204.08"/><rect class="cls-3" x="924.44" y="204.08" width="7.61" height="348.77"/><path class="cls-3" d="M1009.1,235.67V554h177.25V235.67ZM1179.17,546.5H1016.29V243.2h162.88Z" transform="translate(0 -1.18)"/><path class="cls-3" d="M558.32,504.8s7.87-9.18.49-15c0,0-5.39-3.27-9.79-3,0,0,6.23,10.45,4.22,11.49s-6.11-12.15-6.11-12.15-12.28-1.19-16.23.71c0,0,10.5,8.59,8.28,9.1S525.63,488,525.63,488s-11.43,1.95-10.82,8.91,4.55,9.12,6.28,8.94,11.85-4,12.07-2.63-5.87,6.05-10.14,6.27c0,0,8.06,8.88,13.41,6.32s5.81-6.63,9.15-8.15,6.19-1.52,4.81,0-7.42,3.07-9.33,6.44S537.45,519.8,543,519s14.54-4.89,14.94-9.53Z" transform="translate(0 -1.18)"/><path class="cls-3" d="M520.43,497.12s31-1.2,37.89,7.68a22.45,22.45,0,0,0,6.18,8.67l.73,2s-5.38-5.67-7.3-6C557.92,509.44,560.93,498.44,520.43,497.12Z" transform="translate(0 -1.18)"/><path class="cls-3" d="M564.5,513.47a19.49,19.49,0,0,1,7.12,13.73l-1.21.11s-2.13-9.1-6-12.66S564.5,513.47,564.5,513.47Z" transform="translate(0 -1.18)"/><path class="cls-4" d="M585.84,493.25s-12.52-7-6.68-16.53c0,0,4.67-5.84,9.68-7.35,0,0-2.67,14.19,0,14.52s1.84-16,1.84-16S603.87,461.53,609,462c0,0-8.18,13.86-5.51,13.52s11.85-14.36,11.85-14.36,13.52-2.5,15.69,5.51-1.34,12-3.34,12.52-14.86.33-14.52,2,9,4.34,13.86,2.84c0,0-5.34,13.19-12.35,12.52s-9.18-5-13.52-5.34-7.51.83-5.34,2,9.52.38,13,3.36,6.34,4.82-.17,6.15-18.2.5-20.53-4.51Z" transform="translate(0 -1.18)"/><path class="cls-3" d="M624.9,469.21s-35.06,11.35-39.06,24a26.63,26.63,0,0,1-3.34,12.19v2.5s3.67-8.51,5.68-9.68C588.17,498.26,580.33,487.24,624.9,469.21Z" transform="translate(0 -1.18)"/><path class="cls-3" d="M582.5,505.44a23.12,23.12,0,0,0-2.32,18.2l1.39-.37s-1.35-11,1.48-16.54S582.5,505.44,582.5,505.44Z" transform="translate(0 -1.18)"/><path class="cls-4" d="M565.92,483.58s16.5-9.24,8.8-21.79c0,0-6.16-7.7-12.76-9.68,0,0,3.52,18.7,0,19.14s-2.42-21.13-2.42-21.13-17.38-8.36-24.21-7.7c0,0,10.78,18.26,7.26,17.82S527,441.33,527,441.33s-17.82-3.3-20.69,7.26,1.76,15.84,4.4,16.5,19.59.44,19.14,2.64-11.88,5.72-18.26,3.74c0,0,7,17.38,16.28,16.5s12.1-6.6,17.82-7,9.9,1.1,7,2.64-12.54.51-17.16,4.43-8.36,6.35.22,8.11,24,.66,27.07-5.94Z" transform="translate(0 -1.18)"/><path class="cls-3" d="M514.42,451.89s46.21,15,51.49,31.69a35.1,35.1,0,0,0,4.4,16.06v3.3s-4.84-11.22-7.48-12.76C562.84,490.18,573.18,475.66,514.42,451.89Z" transform="translate(0 -1.18)"/><path class="cls-3" d="M570.32,499.64s7.13,10.82,3.06,24l-1.83-.49s1.78-14.51-1.95-21.81S570.32,499.64,570.32,499.64Z" transform="translate(0 -1.18)"/><path class="cls-3" d="M534.14,519.88a32.33,32.33,0,1,0,64.66,0Z" transform="translate(0 -1.18)"/><path class="cls-4" d="M546.9,519.88a32.34,32.34,0,0,0,26,31.7,32.34,32.34,0,0,0,26-31.7Z" transform="translate(0 -1.18)"/><path class="cls-3" d="M533.7,553.85h65.55a4,4,0,0,0-4-4H537.69A4,4,0,0,0,533.7,553.85Z" transform="translate(0 -1.18)"/><path class="cls-5" d="M574.64,549.86h-4.38c11.86-4.79,16.58-16.41,16.58-30h8A32.34,32.34,0,0,1,574.64,549.86Z" transform="translate(0 -1.18)"/><path class="cls-4" d="M564.4,553.85h34.85a4,4,0,0,0-4-4H567.12C564.92,549.86,564.4,551.65,564.4,553.85Z" transform="translate(0 -1.18)"/><path class="cls-3" d="M533.91,520.87h65.47a.5.5,0,0,0,.5-.5h0a.5.5,0,0,0-.5-.5H533.91a.5.5,0,0,0-.5.5h0A.5.5,0,0,0,533.91,520.87Z" transform="translate(0 -1.18)"/><rect class="cls-3" x="611.2" y="397" width="27.15" height="43.99" rx="10.54" ry="10.54" transform="translate(1249.54 836.81) rotate(180)"/><polygon class="cls-2" points="624.77 405.35 630.38 415.06 619.16 415.06 624.77 405.35"/><polygon class="cls-2" points="624.77 430.72 630.38 421.01 619.16 421.01 624.77 430.72"/><path class="cls-2" d="M764.22,344a.63.63,0,0,0,.47-1l-35.46-41a.63.63,0,0,0-.93,0l-30,31.33a.63.63,0,1,0,.9.87l29.53-30.83,35,40.52A.62.62,0,0,0,764.22,344Z" transform="translate(0 -1.18)"/><circle class="cls-7" cx="728.65" cy="302.39" r="2.19"/><rect class="cls-7" x="693.05" y="336.12" width="71.42" height="26.26" transform="translate(1383.23 822.15) rotate(-169.69)"/><path class="cls-10" d="M704.54,348a.48.48,0,0,1,.22-.3.5.5,0,0,1,.32-.06l1.34.2a.48.48,0,0,1,.3.17.37.37,0,0,1,.08.34,4.29,4.29,0,0,1-.55,1.31,3.59,3.59,0,0,1-1.07,1.09,4.72,4.72,0,0,1-1.64.67,6.26,6.26,0,0,1-2.26,0,5.64,5.64,0,0,1-2-.65,4.34,4.34,0,0,1-1.35-1.17,4.27,4.27,0,0,1-.73-1.59,6,6,0,0,1-.13-1.9q.06-.63.18-1.4t.24-1.39a6,6,0,0,1,.68-1.78,4.26,4.26,0,0,1,1.17-1.31,4.34,4.34,0,0,1,1.63-.72,5.64,5.64,0,0,1,2.07,0,6.26,6.26,0,0,1,2.15.68,4.73,4.73,0,0,1,1.37,1.12,3.57,3.57,0,0,1,.7,1.37,4.35,4.35,0,0,1,.13,1.4.37.37,0,0,1-.17.3.48.48,0,0,1-.34.08l-1.34-.2a.53.53,0,0,1-.3-.16.47.47,0,0,1-.13-.35,1.84,1.84,0,0,0-.13-.68,2,2,0,0,0-.41-.64,2.59,2.59,0,0,0-.73-.53,3.67,3.67,0,0,0-1.1-.33,3,3,0,0,0-1.16,0,2.39,2.39,0,0,0-.88.41,2.29,2.29,0,0,0-.62.72,3.41,3.41,0,0,0-.36.95q-.13.62-.24,1.39t-.18,1.4a3.35,3.35,0,0,0,.06,1,2.3,2.3,0,0,0,.38.86,2.39,2.39,0,0,0,.72.65,3,3,0,0,0,1.1.37,3.67,3.67,0,0,0,1.15,0,2.71,2.71,0,0,0,.87-.28,2,2,0,0,0,.59-.49A1.84,1.84,0,0,0,704.54,348Z" transform="translate(0 -1.18)"/><path class="cls-10" d="M716.2,351.42a.46.46,0,0,1,.38.52l-.18,1.18a.46.46,0,0,1-.52.38l-7.26-1.1a.46.46,0,0,1-.38-.52l1.62-10.7a.46.46,0,0,1,.52-.38l1.34.2a.46.46,0,0,1,.38.52l-1.38,9.08Z" transform="translate(0 -1.18)"/><path class="cls-10" d="M718.45,346.44a5.92,5.92,0,0,1,.62-1.69,4,4,0,0,1,1.12-1.29,4.35,4.35,0,0,1,1.64-.73,5.79,5.79,0,0,1,2.17,0,5.85,5.85,0,0,1,2.05.67,4.19,4.19,0,0,1,1.35,1.19,4.24,4.24,0,0,1,.7,1.56,5.71,5.71,0,0,1,.1,1.81q0,.32-.08.7t-.11.79q-.06.41-.13.79t-.13.69a5.92,5.92,0,0,1-.62,1.69,4,4,0,0,1-1.12,1.29,4.23,4.23,0,0,1-1.64.73,6.68,6.68,0,0,1-4.23-.64,4.24,4.24,0,0,1-1.35-1.18,4,4,0,0,1-.69-1.56,5.92,5.92,0,0,1-.09-1.8c0-.21,0-.44.08-.7s.07-.52.11-.79.08-.53.13-.79S718.41,346.65,718.45,346.44Zm7.49,1.22a2.66,2.66,0,0,0-5.27-.8q-.13.62-.25,1.39t-.18,1.41a2.61,2.61,0,0,0,.49,2,3,3,0,0,0,3.73.57,2.61,2.61,0,0,0,1-1.72q.13-.62.25-1.39T725.94,347.66Z" transform="translate(0 -1.18)"/><path class="cls-10" d="M735,344.36a5.94,5.94,0,0,1,1.91.59,4.91,4.91,0,0,1,1.3,1,3.27,3.27,0,0,1,.7,1.12,2.57,2.57,0,0,1,.17,1.07.37.37,0,0,1-.17.3.48.48,0,0,1-.34.08l-1.16-.18a.7.7,0,0,1-.41-.17,1.12,1.12,0,0,1-.21-.33,2.18,2.18,0,0,0-.64-.83,3,3,0,0,0-1.45-.53,3.62,3.62,0,0,0-.83,0,2.37,2.37,0,0,0-.72.16,1.41,1.41,0,0,0-.52.35,1,1,0,0,0-.25.54,1.13,1.13,0,0,0,.06.65,1.25,1.25,0,0,0,.47.49,5.47,5.47,0,0,0,.94.47l1.47.58a10.89,10.89,0,0,1,1.64.77,4.05,4.05,0,0,1,1.07.87,2.63,2.63,0,0,1,.54,1,3.12,3.12,0,0,1,0,1.24,3,3,0,0,1-.54,1.33,3.22,3.22,0,0,1-1.11,1,4.83,4.83,0,0,1-1.62.49,7.14,7.14,0,0,1-2,0,7,7,0,0,1-1.74-.49,5.26,5.26,0,0,1-1.4-.87,3.61,3.61,0,0,1-.9-1.18,2.71,2.71,0,0,1-.25-1.39.37.37,0,0,1,.17-.3.48.48,0,0,1,.34-.08l1.16.18a.79.79,0,0,1,.42.16.76.76,0,0,1,.2.34,3.16,3.16,0,0,0,.22.47,1.55,1.55,0,0,0,.39.45,2.73,2.73,0,0,0,.66.38,4.39,4.39,0,0,0,1,.27,6.13,6.13,0,0,0,1,.07,2.85,2.85,0,0,0,.85-.13,1.75,1.75,0,0,0,.63-.35,1,1,0,0,0,.31-.61.82.82,0,0,0-.14-.63,1.88,1.88,0,0,0-.64-.5,9.93,9.93,0,0,0-1.12-.49q-.67-.25-1.55-.62a8.7,8.7,0,0,1-1.38-.69,3.45,3.45,0,0,1-.93-.83,2.54,2.54,0,0,1-.46-1,3.75,3.75,0,0,1,0-1.31,2.94,2.94,0,0,1,.54-1.32,3.32,3.32,0,0,1,1.07-.94,4.52,4.52,0,0,1,1.49-.49A5.73,5.73,0,0,1,735,344.36Z" transform="translate(0 -1.18)"/><path class="cls-10" d="M748,356.25a.46.46,0,0,1,.38.52l-.18,1.18a.46.46,0,0,1-.52.38l-7.27-1.1a.46.46,0,0,1-.38-.52L741.7,346a.46.46,0,0,1,.51-.38l7.14,1.08a.46.46,0,0,1,.38.51l-.18,1.18a.46.46,0,0,1-.52.38l-5.35-.81-.4,2.63,5,.76a.46.46,0,0,1,.38.52l-.18,1.18a.46.46,0,0,1-.52.38l-5-.76-.42,2.75Z" transform="translate(0 -1.18)"/><path class="cls-10" d="M756.53,347.79a6.38,6.38,0,0,1,2.08.65,4.1,4.1,0,0,1,1.37,1.15,4,4,0,0,1,.71,1.58,6.47,6.47,0,0,1,.1,1.95,23,23,0,0,1-.37,2.45,6.48,6.48,0,0,1-.68,1.83,4.11,4.11,0,0,1-1.14,1.3,4,4,0,0,1-1.62.69,6.14,6.14,0,0,1-2.13,0l-4.17-.63a.46.46,0,0,1-.38-.52l1.62-10.7a.46.46,0,0,1,.51-.38Zm2,5a3.38,3.38,0,0,0-.06-1,2.27,2.27,0,0,0-.39-.87,2.37,2.37,0,0,0-.77-.66,3.57,3.57,0,0,0-1.2-.38l-2.22-.34L752.78,357l2.3.35a3.31,3.31,0,0,0,1.21,0,2.35,2.35,0,0,0,.91-.4,2.23,2.23,0,0,0,.63-.72,3.47,3.47,0,0,0,.36-1A23.12,23.12,0,0,0,758.55,352.78Z" transform="translate(0 -1.18)"/><ellipse class="cls-11" cx="941.37" cy="398" rx="2.82" ry="6.57"/><ellipse class="cls-3" cx="944.81" cy="398" rx="4.7" ry="10.95"/><path class="cls-6" d="M954,387.72c2.76.64,15.25.79,24-1.18a26.8,26.8,0,0,0,4.88-1.52,7.53,7.53,0,0,0,3.53-2.67c1-1.65,2.8-7.3,4.93-14.71,5.87-20.41,14.13-54.13,14.13-54.13s-16.59,3.39-20.1,6.28-6.61,48.73-9.91,50c-.49.18-1.33.57-2.4,1.1l-.16.08L970.75,372c-6.85,3.52-18.18,9.86-19.36,11.27C949.85,385.14,950,386.79,954,387.72Z" transform="translate(0 -1.18)"/><path class="cls-6" d="M985.8,339.61a13.08,13.08,0,0,1,.22-2.34c2.13-11.74,19.1-23.75,19.44-23.75v.24c0,1.79,2.83,5.1,7.18,5.39,5.17.34,11.54-2.61,11.54-5.59,0,0,2.9.39,3.88.5,4.14.47,12.4,2.71,15.95,5.38,3.37,2.54-1.39,18.58-4.34,29.93-1.25,4.8-2.17,8.77-2,10.53.07.86.85,12.51,1.53,23.06.57,8.7,1.08,16.64,1.1,17.13,0,1-4.88,4.45-13.12,7.06a64.34,64.34,0,0,1-6.54,1.7,69.56,69.56,0,0,1-14.23,1.41c-1.7,0-3.32-.09-4.84-.24C989.77,408.86,985.74,395.43,985.8,339.61Z" transform="translate(0 -1.18)"/><path class="cls-12" d="M1024.19,313.42a99.89,99.89,0,0,0-.59-14.6l-18.19,3s0,5.55.06,11.72c0,0-.49,5.71,6.54,6.55S1024.38,317.83,1024.19,313.42Z" transform="translate(0 -1.18)"/><path class="cls-13" d="M1009,554.33c2.29-1.41.94-11.84.94-11.84s-10.71-8.51-12.16-2S987.64,550,982.7,550.87c-3.41.57-4.67,2.33-5,3.45Z" transform="translate(0 -1.18)"/><path class="cls-14" d="M1025.63,374.92c0,17.45,8.46,12.75,13.56,8-.69-10.54-1.17-47.89-1.17-47.89S1025.63,349.93,1025.63,374.92Z" transform="translate(0 -1.18)"/><path class="cls-14" d="M970.75,372c.34,2.45,4.2,9.57,7.24,14.53a26.8,26.8,0,0,0,4.88-1.52,7.53,7.53,0,0,0,3.53-2.67c1-1.65,2.8-7.3,4.93-14.71-1.58-9.12-3.08-18.12-3.08-18.12l-.46-6c0,.46-7.07,27-10.27,27.62a11.35,11.35,0,0,1-4.46-.25l-.16.08Z" transform="translate(0 -1.18)"/><path class="cls-13" d="M1041.8,554.33c2.29-1.41.94-11.84.94-11.84s-10.71-8.51-12.16-2-10.11,9.52-15.05,10.34c-3.41.57-4.65,2.33-5,3.45Z" transform="translate(0 -1.18)"/><path class="cls-13" d="M1025.92,293.57s12.15-19.15-11.18-20.42c0,0-8.75,1-10.73-1,0,0-6.78,10.31-.45,21.37S1025.92,293.57,1025.92,293.57Z" transform="translate(0 -1.18)"/><path class="cls-12" d="M1005.94,303.57c1.77,1.39,7,2.77,8.45,2.93,0,0,7.69-1.71,9.08-2.56,2.16-1.31,2-4,2.14-7.66.13-4.37.57-7.8.09-10.32-.58-3-2.49-4.73-7.84-5.19-9.82-.85-13.91,1.61-14.08,4.9,0,.88-.09,1.73-.11,2.53C1003.27,298.46,1004.08,302.1,1005.94,303.57Z" transform="translate(0 -1.18)"/><path class="cls-13" d="M1003.58,291.56c.09,5.95,1.7,9.47,2.86,9.91a24.59,24.59,0,0,0,4.55,1.22c.55.06,1.08,0,1.08-.27,0-.94-1.27-2.09-.34-2.93s6.22-1.16,6.64.74c.21.93-1.48,2.56-.33,2.6.35-.06.7-.13,1-.21a15.31,15.31,0,0,0,4-1.78c2.16-1.31,2-3.32,2.5-7,.31-2.37.31-1.08,0,2.43-.32,3.68.31,6-2.14,7.66-1.36.9-9.2,4.42-9.2,4.42.11-1.86-6.57-3.41-8.34-4.8S1003.48,299.29,1003.58,291.56Z" transform="translate(0 -1.18)"/><path class="cls-2" d="M1040.29,400.09c0,1-4.88,4.45-13.12,7.06-.66.21-1.35.42-2.06.61l0,0c-.77,9-2.85,21.78-4.73,34.09h0c-.49,3.19-1,6.35-1.39,9.41a187.24,187.24,0,0,0-2.1,20.77v.06c0,2.43,2,8.51,2.17,9.91.1.86.17,1.77.23,2.72a110.32,110.32,0,0,1-.17,13.09c-1.35,20.93-6.88,47.7-8.85,48.84-3.92,2.27-11.06,0-14.68-.53a3,3,0,0,1-2.63-3c1.77-34.73-3.32-83.09-7.12-112.83l-.29-2.28c-.46-3.51-.76-6.78-.94-9.73-.17-2.59-.26-4.94-.29-7,0-.63,0-1.24,0-1.82,0-1.86,1.47-14,1.54-69.87h0a2.35,2.35,0,0,1,2.35-2.34h34.14a5.92,5.92,0,0,1,5.91,6,95.15,95.15,0,0,0,1,15.88c1.26,7.75,4,15,9.53,16.74h0l.42,1h0q.08,2.1.18,4.28c0,.29,0,.59,0,.88s0,.34,0,.52,0,.59,0,.89c0,.49,0,1,.07,1.48l.06,1.17q.06,1.13.14,2.29c0,.25,0,.49,0,.74.06,1,.13,2,.21,3,0,.31,0,.63.07.94,0,.15,0,.3,0,.46,0,.4.06.8.1,1.2s.07.85.11,1.28C1040.45,397.59,1040.25,399,1040.29,400.09Z" transform="translate(0 -1.18)"/><path class="cls-13" d="M1019.1,497.82c-1.35,20.93-6.88,47.7-8.85,48.84-3.92,2.27-11.06,0-14.68-.53a3,3,0,0,1-2.63-3c1.77-34.73-3.32-83.09-7.12-112.83l-.29-2.28c-.46-3.51-.76-6.78-.94-9.73,1.81-11.79,12-12.42,21.28,12C1004.71,438.33,1019.4,493,1019.1,497.82Z" transform="translate(0 -1.18)"/><path class="cls-2" d="M1040.68,471.07c.28,2.42,3.11,8.17,3.45,9.54,4.68,18.82,2.09,63.45-.23,65.24-3.59,2.76-11,1.45-14.63,1.4a3,3,0,0,1-3-2.64c-2.88-35.56-14.8-84.4-22.47-113.13a134.83,134.83,0,0,1-4.41-25.11s35.84-22,39.72-10C1042.54,407,1038.51,452.49,1040.68,471.07Z" transform="translate(0 -1.18)"/><path class="cls-6" d="M1004.17,267.8q.37-.42.79-.81a13.94,13.94,0,0,1,4.27-2.78c6.25-2.61,11.43-.2,14.67,2.26.32.24.62.48.9.72a18.85,18.85,0,0,1,2.74,2.83s3,4.14,2.93,12.87l-31.26.33S998.75,273.81,1004.17,267.8Z" transform="translate(0 -1.18)"/><path class="cls-14" d="M1021.7,283l-1.72,0c0-.5,0-11.84,4.28-16.25a6.2,6.2,0,0,1,.53.44C1020.78,271.09,1021.69,282.88,1021.7,283Z" transform="translate(0 -1.18)"/><path class="cls-14" d="M1008.11,283.15a48.06,48.06,0,0,0-3.74-15.54,7,7,0,0,1,.58-.61c.5.86,4.58,8.42,5,16.13l20.51-.22s-10.39,2.33-16.66,2.41-14.6-2.07-14.6-2.07Z" transform="translate(0 -1.18)"/><path class="cls-2" d="M1029.3,314.22s-10.56,12.31-11.18,23l5.38.29A51.74,51.74,0,0,1,1032.8,315s-1.24-.3-1.66-.38Z" transform="translate(0 -1.18)"/><path class="cls-2" d="M1003,314.05a53.81,53.81,0,0,0-8.38,23.44l-5.43-.09c.45-8.44,5.75-17.72,8.68-22.12C997.83,315.28,1001.58,314.33,1003,314.05Z" transform="translate(0 -1.18)"/><path class="cls-6" d="M1014.76,432.15h4.36c2-.92,12.95-5.65,23.45-5.71,7.58,0,16.21,5.62,16.73,5.68,1.32.15-4.39.21-4.39.21s-8.55-3.78-12.39-3.87c-3.66-.09-11.79,2.58-15,3.7h24.45a3.73,3.73,0,0,1,3.72,3.72v27.88a3.73,3.73,0,0,1-3.72,3.72h-37.17a3.73,3.73,0,0,1-3.72-3.72V435.87A3.73,3.73,0,0,1,1014.76,432.15Z" transform="translate(0 -1.18)"/><rect class="cls-14" x="1023.12" y="430.97" width="44.6" height="35.31" rx="3.72" ry="3.72"/><path class="cls-6" d="M1037.75,380.28c-.27,12.6,1.3,37.69,1.3,37.69h7.43c3.51-17.66,4.75-29,4.75-35.21q0-1.83,0-3.41c0-5.29-.19-8.36-.19-8.36,1.39-32.06-5-49.2-7-51.56S1032.8,315,1032.8,315a126.42,126.42,0,0,0-4.28,16c-1.24,7.12,9.74,37.06,9.29,47.29C1037.79,378.86,1037.77,379.55,1037.75,380.28Z" transform="translate(0 -1.18)"/><path class="cls-12" d="M1039.06,418s-1.57-25.09-1.3-37.69a26.34,26.34,0,0,1,13.47-.92q0,1.57,0,3.41c0,6.19-1.24,17.55-4.75,35.21,1.55,6.5,1.45,13.53-1.24,14.76s-11.56-3.41-11.46-5.47S1039.06,418,1039.06,418Z" transform="translate(0 -1.18)"/><path class="cls-12" d="M937.34,389c.72-2.66,1.26-4.13,3.09-5.42,2.66-1.88,5.81-1.37,8.17-1a9,9,0,0,0,4.47-.59c4.17-2.78,14.62-8.5,19.83-11.07,3.55,2.06,7.92,6.14,10,14.09-8,3.53-25.55,3.47-28.89,2.7,0,0-3.09,2.25-5.44,2.45a8.18,8.18,0,0,1-3.06-.53,4.16,4.16,0,0,0-4.61,1.47,5.69,5.69,0,0,1-3.25,2.19C936.65,393.3,936.89,390.63,937.34,389Z" transform="translate(0 -1.18)"/><path class="cls-6" d="M842,364.74c2.95,9,19,24.61,21.23,26.17,0,0,3.74-6.23,3-9.72-.61-2.85-6.86-13-9-18-.11-.26-.21-.51-.3-.74a4.49,4.49,0,0,1-.41-1.71c.11-1.08,3.51-3.72,7.47-6.85,5.14-4.07,11.22-9,12.21-12.34,1.74-6,7.79-29.65,7.79-29.65s-15,3.25-19.25,7-22.42,34.88-23.17,42.85A7.48,7.48,0,0,0,842,364.74Z" transform="translate(0 -1.18)"/><path class="cls-12" d="M842,364.74c2.95,9,19,24.61,21.23,26.17,0,0,3.74-6.23,3-9.72-.64-3-7.53-14.07-9.3-18.72A23.34,23.34,0,0,0,842,364.74Z" transform="translate(0 -1.18)"/><path class="cls-12" d="M883.93,309.84v1.84s-.5,5.75,6.58,6.59,12.41-1.73,12.22-6.16a57.29,57.29,0,0,1-1.35-9.15,20,20,0,0,1,.25-3.44l-13.72-.27-4,.66Z" transform="translate(0 -1.18)"/><path class="cls-15" d="M883.87,299.9l.05,9.94a11.6,11.6,0,0,0,4.95,1.09c6.31,0,10.38-4.62,12.51-8a20,20,0,0,1,.25-3.44l-13.72-.27Z" transform="translate(0 -1.18)"/><path class="cls-13" d="M896,553.64a32.26,32.26,0,0,1,2.21-8.27c1.54-3.08,11.36-1.12,11.36-1.12s2,1.68,2.38,9.53Z" transform="translate(0 -1.18)"/><path class="cls-13" d="M862.58,553.63c2.31-1.41,1-11.91,1-11.91s-10.74-8.6-12.22-2-10.21,9.54-15.18,10.34c-3.43.56-4.49,2.46-4.82,3.58Z" transform="translate(0 -1.18)"/><path class="cls-2" d="M884.84,476.09a49.53,49.53,0,0,0-.79,5.8c-1,19.48-16.4,64-19.16,65.07-4.26,1.61-11-1.81-14.49-2.93a3,3,0,0,1-2.11-3.42c7.63-35.06,10.43-85.56,11.45-115.45a135.63,135.63,0,0,1,3.1-25.46s37.56-10,37.79,2.66C900.83,413.58,888.19,457.58,884.84,476.09Z" transform="translate(0 -1.18)"/><path class="cls-13" d="M884.84,476.09l-25.09-50.92a135.63,135.63,0,0,1,3.1-25.46s37.56-10,37.79,2.66C900.83,413.58,888.19,457.58,884.84,476.09Z" transform="translate(0 -1.18)"/><path class="cls-2" d="M876.48,402.41l19.86,143.93s8.72,2.1,15.5.42c0,0,5.81-76.55,5.33-95.05s4.17-49.52-1.06-52.94S876.48,402.41,876.48,402.41Z" transform="translate(0 -1.18)"/><path class="cls-6" d="M861.76,402.68a52.28,52.28,0,0,0,24.85,5.75,110.17,110.17,0,0,0,14.95-1.12c11.79-1.75,17.74-5,17.69-6.27s-.12-4.78-.26-6.36c-1.87-21.6-.9-38.41-3.43-51,0-.15-.06-.3-.09-.45-3.34-16-8.56-25.27-11.16-29.05a14.32,14.32,0,0,0-1.57-2c0,3-6.38,5.58-11.58,5.24-4.38-.29-7.22-3.62-7.22-5.42h0c-.36,0-19.76,13.48-19.77,26C864.09,394.08,860.69,402.7,861.76,402.68Z" transform="translate(0 -1.18)"/><path class="cls-14" d="M901.53,407.12l0,.18c11.79-1.75,17.74-5,17.69-6.27s-.12-4.78-.26-6.36c-1.87-21.6-.9-38.41-3.43-51C909.37,351.92,896.65,373.58,901.53,407.12Z" transform="translate(0 -1.18)"/><path class="cls-12" d="M899.65,388.58a72.37,72.37,0,0,0,31.59-12.77c1.51-1.13,2.29-1.85,2.29-1.85,8.38-17.61-6.78-48.49-9.55-53.73-3-5.65-21.24-8.13-21.24-8.13a99.37,99.37,0,0,1,4.05,19.75c1.14,11.18,13.29,33,12.79,34.8-.12.46-1.59,1.43-3.73,2.65-6.35,3.61-18.61,9.44-19.35,10.8C895.5,381.94,899.65,388.58,899.65,388.58Z" transform="translate(0 -1.18)"/><path class="cls-6" d="M906.79,331.86c1.14,11.18,13.29,33,12.79,34.8-.12.46-1.59,1.43-3.73,2.65h.41c9.56-.42,13.88,4.87,15,6.5,1.51-1.13,2.29-1.85,2.29-1.85,8.38-17.61-6.78-48.49-9.55-53.73-3-5.65-21.24-8.13-21.24-8.13A99.37,99.37,0,0,1,906.79,331.86Z" transform="translate(0 -1.18)"/><path class="cls-12" d="M883.07,304.73s17.57,3.55,19.61-7.43,5.69-17.91-5.45-20.64-14.1,1.05-15.67,4.55S878.55,303.53,883.07,304.73Z" transform="translate(0 -1.18)"/><path class="cls-13" d="M902.33,300.47s3.4-7.25,6.23-10.47,1.29-19.32-10.95-18.8-16.61,9.27-16.74,10.95,9.79.39,12.49,2.58.13,5.79,3.22,7.08,5.54,1.29,5,4.12A6.22,6.22,0,0,0,902.33,300.47Z" transform="translate(0 -1.18)"/><path class="cls-6" d="M898.56,263.73a19.35,19.35,0,0,1,8.09,4l.57.51h0c7.25,6.92,4.36,17.93,4.36,17.93a29,29,0,0,1-1.63,3.86c-.66,1.08-10.3-.17-10.8-2.24a12.15,12.15,0,0,0-2.41-4.24l-10.84-.75c-2.29-.17-8.84-2.44-8.84-2.44C877.14,279.7,880.82,259.27,898.56,263.73Z" transform="translate(0 -1.18)"/><path class="cls-14" d="M871,278.18a34.47,34.47,0,0,1,6.72-.75,27.43,27.43,0,0,0,8.59,4.2c2.69-3.38,10.33-11.54,20.29-13.92l.09,0c.21.27.33.36.48.54h0l.14.19c-8.11,1.41-15.81,10.52-18.46,13.93a45.19,45.19,0,0,0,7.84,1.19s-17.75.33-25.86-3.94A.76.76,0,0,1,871,278.18Z" transform="translate(0 -1.18)"/><path class="cls-14" d="M853,358.77a5.07,5.07,0,0,0,4.2,4.44c-.11-.26-.21-.51-.3-.74a4.49,4.49,0,0,1-.41-1.71c.11-1.08,3.51-3.72,7.47-6.85.33-1.77,1.12-7,0-11.22C862.57,337.59,852.6,356.65,853,358.77Z" transform="translate(0 -1.18)"/><path class="cls-14" d="M917.75,368s12.21-1,16.19,6.1a2,2,0,0,1-2.7,1.66s-10.33-7.06-15.4-6.51A2.75,2.75,0,0,1,917.75,368Z" transform="translate(0 -1.18)"/><path class="cls-14" d="M857.18,363.2a44.28,44.28,0,0,0-14.31,3.74s-1.77-1.74-1.06-2.73S853.74,359.63,857.18,363.2Z" transform="translate(0 -1.18)"/><polygon class="cls-2" points="867.56 361.07 866.07 362.5 868.73 364.94 868.96 364.72 880.27 376.52 880.95 375.87 869.64 364.07 869.87 363.85 867.56 361.07"/><path class="cls-13" d="M891.72,388.94h0a1.57,1.57,0,0,1-2.21,0l-9.18-9.57a1.57,1.57,0,0,1,0-2.21h0a1.57,1.57,0,0,1,2.21,0l9.18,9.57A1.57,1.57,0,0,1,891.72,388.94Z" transform="translate(0 -1.18)"/><path class="cls-12" d="M896.49,380.11s-9.13-3.65-11.38-2.16-6,3.74-6,5.23,4.73,5.48,8.72,6.73,11.79-1.33,11.79-1.33Z" transform="translate(0 -1.18)"/><rect class="cls-2" x="482.74" y="552.44" width="741.92" height="3.28" rx="1.64" ry="1.64"/><rect class="cls-16" width="1280" height="720"/></svg>